<?xml version="1.0" standalone="yes"?>
<svg xmlns="http://www.w3.org/2000/svg" width="512" height="512">
<path style="fill:#ffffff; stroke:none;" d="M0 0L0 512L512 512L512 0L0 0z"/>
<path style="fill:#b2e7e4; stroke:none;" d="M135 148L135 149L140 149L135 148z"/>
<path style="fill:#7dd6d2; stroke:none;" d="M140 148L140 149L159 149L140 148z"/>
<path style="fill:#b2e7e4; stroke:none;" d="M159 148L159 149L165 149L159 148M348 148L348 149L354 149L348 148z"/>
<path style="fill:#7dd6d2; stroke:none;" d="M354 148L354 149L373 149L354 148z"/>
<path style="fill:#b2e7e4; stroke:none;" d="M373 148L373 149L378 149L373 148M129 149L129 150L132 150L129 149z"/>
<path style="fill:#7dd6d2; stroke:none;" d="M132.667 149.333L133.333 149.667L132.667 149.333z"/>
<path style="fill:#56cac4; stroke:none;" d="M134 149L134 150L140 150L134 149z"/>
<path style="fill:#39c0ba; stroke:none;" d="M258 300C266.922 317.203 285.893 335.338 302 345.921C317.582 356.16 336.222 362.999 355 363C397.595 363.003 436.534 346.282 457.691 307C491.815 243.64 452.147 155.42 377 149.911C358.884 148.583 342.364 149.523 325 155.333C305.322 161.918 290.018 175.045 276.09 190C269.125 197.478 263.255 206.924 255 213C246.069 195.781 227.012 177.458 211 166.748C196.564 157.093 180.185 151.549 163 149.831C115.295 145.061 69.5979 168.829 50.4282 214C23.7658 276.826 64.8941 356.552 135 363.075C153.308 364.778 170.486 363.527 188 357.667C208.192 350.91 223.63 337.331 237.91 322C244.566 314.855 250.115 305.804 258 300z"/>
<path style="fill:#56cac4; stroke:none;" d="M160 149L160 150L166 150L160 149z"/>
<path style="fill:#7dd6d2; stroke:none;" d="M166.667 149.333L167.333 149.667L166.667 149.333z"/>
<path style="fill:#b2e7e4; stroke:none;" d="M168 149L168 150L171 150L168 149M342 149L342 150L345 150L342 149z"/>
<path style="fill:#7dd6d2; stroke:none;" d="M345.667 149.333L346.333 149.667L345.667 149.333z"/>
<path style="fill:#56cac4; stroke:none;" d="M347 149L347 150L353 150L347 149M373 149L373 150L379 150L373 149z"/>
<path style="fill:#7dd6d2; stroke:none;" d="M379.667 149.333L380.333 149.667L379.667 149.333z"/>
<path style="fill:#b2e7e4; stroke:none;" d="M381 149L381 150L384 150L381 149M124 150L124 151L127 151L124 150z"/>
<path style="fill:#7dd6d2; stroke:none;" d="M127 150L128 151L127 150z"/>
<path style="fill:#56cac4; stroke:none;" d="M128 150L129 151L128 150M170.667 150.333L171.333 150.667L170.667 150.333z"/>
<path style="fill:#7dd6d2; stroke:none;" d="M172.667 150.333L173.333 150.667L172.667 150.333z"/>
<path style="fill:#b2e7e4; stroke:none;" d="M174.667 150.333L175.333 150.667L174.667 150.333M337.667 150.333L338.333 150.667L337.667 150.333z"/>
<path style="fill:#7dd6d2; stroke:none;" d="M339.667 150.333L340.333 150.667L339.667 150.333z"/>
<path style="fill:#56cac4; stroke:none;" d="M341.667 150.333L342.333 150.667L341.667 150.333M384 150L385 151L384 150z"/>
<path style="fill:#7dd6d2; stroke:none;" d="M385 150L386 151L385 150z"/>
<path style="fill:#b2e7e4; stroke:none;" d="M386 150L386 151L389 151L386 150M120.667 151.333L121.333 151.667L120.667 151.333z"/>
<path style="fill:#7dd6d2; stroke:none;" d="M122.667 151.333L123.333 151.667L122.667 151.333z"/>
<path style="fill:#56cac4; stroke:none;" d="M124 151L125 152L124 151M175.667 151.333L176.333 151.667L175.667 151.333z"/>
<path style="fill:#7dd6d2; stroke:none;" d="M177 151L178 152L177 151z"/>
<path style="fill:#b2e7e4; stroke:none;" d="M178.667 151.333L179.333 151.667L178.667 151.333M333.667 151.333L334.333 151.667L333.667 151.333z"/>
<path style="fill:#7dd6d2; stroke:none;" d="M335.667 151.333L336.333 151.667L335.667 151.333z"/>
<path style="fill:#56cac4; stroke:none;" d="M337 151L338 152L337 151M389 151L390 152L389 151z"/>
<path style="fill:#7dd6d2; stroke:none;" d="M390 151L391 152L390 151z"/>
<path style="fill:#b2e7e4; stroke:none;" d="M391.667 151.333L392.333 151.667L391.667 151.333M116 152L116 153L119 153L116 152z"/>
<path style="fill:#7dd6d2; stroke:none;" d="M119 152L120 153L119 152z"/>
<path style="fill:#56cac4; stroke:none;" d="M120 152L121 153L120 152M179 152L180 153L179 152z"/>
<path style="fill:#7dd6d2; stroke:none;" d="M180.667 152.333L181.333 152.667L180.667 152.333z"/>
<path style="fill:#b2e7e4; stroke:none;" d="M182.667 152.333L183.333 152.667L182.667 152.333M329.667 152.333L330.333 152.667L329.667 152.333z"/>
<path style="fill:#7dd6d2; stroke:none;" d="M331.667 152.333L332.333 152.667L331.667 152.333z"/>
<path style="fill:#56cac4; stroke:none;" d="M333 152L334 153L333 152M392 152L393 153L392 152z"/>
<path style="fill:#7dd6d2; stroke:none;" d="M393 152L394 153L393 152z"/>
<path style="fill:#b2e7e4; stroke:none;" d="M394 152L394 153L397 153L394 152M113.667 153.333L114.333 153.667L113.667 153.333z"/>
<path style="fill:#7dd6d2; stroke:none;" d="M115.667 153.333L116.333 153.667L115.667 153.333z"/>
<path style="fill:#56cac4; stroke:none;" d="M117 153L118 154L117 153M182.667 153.333L183.333 153.667L182.667 153.333z"/>
<path style="fill:#7dd6d2; stroke:none;" d="M184 153L185 154L184 153z"/>
<path style="fill:#b2e7e4; stroke:none;" d="M185.667 153.333L186.333 153.667L185.667 153.333M326.667 153.333L327.333 153.667L326.667 153.333z"/>
<path style="fill:#7dd6d2; stroke:none;" d="M328 153L329 154L328 153z"/>
<path style="fill:#56cac4; stroke:none;" d="M329.667 153.333L330.333 153.667L329.667 153.333M395 153L396 154L395 153z"/>
<path style="fill:#7dd6d2; stroke:none;" d="M396.667 153.333L397.333 153.667L396.667 153.333z"/>
<path style="fill:#b2e7e4; stroke:none;" d="M398.667 153.333L399.333 153.667L398.667 153.333M111 154L112 155L111 154z"/>
<path style="fill:#7dd6d2; stroke:none;" d="M112.667 154.333L113.333 154.667L112.667 154.333z"/>
<path style="fill:#56cac4; stroke:none;" d="M114 154L115 155L114 154M185.667 154.333L186.333 154.667L185.667 154.333z"/>
<path style="fill:#7dd6d2; stroke:none;" d="M187 154L188 155L187 154z"/>
<path style="fill:#b2e7e4; stroke:none;" d="M188 154L189 155L188 154M324 154L325 155L324 154z"/>
<path style="fill:#7dd6d2; stroke:none;" d="M325 154L326 155L325 154z"/>
<path style="fill:#56cac4; stroke:none;" d="M326.667 154.333L327.333 154.667L326.667 154.333M398 154L399 155L398 154z"/>
<path style="fill:#7dd6d2; stroke:none;" d="M399.667 154.333L400.333 154.667L399.667 154.333z"/>
<path style="fill:#b2e7e4; stroke:none;" d="M401 154L402 155L401 154M108.667 155.333L109.333 155.667L108.667 155.333z"/>
<path style="fill:#7dd6d2; stroke:none;" d="M110 155L111 156L110 155z"/>
<path style="fill:#56cac4; stroke:none;" d="M111 155L112 156L111 155M188.667 155.333L189.333 155.667L188.667 155.333z"/>
<path style="fill:#7dd6d2; stroke:none;" d="M190 155L191 156L190 155z"/>
<path style="fill:#b2e7e4; stroke:none;" d="M191 155L192 156L191 155M321 155L322 156L321 155z"/>
<path style="fill:#7dd6d2; stroke:none;" d="M322 155L323 156L322 155z"/>
<path style="fill:#56cac4; stroke:none;" d="M323.667 155.333L324.333 155.667L323.667 155.333M401 155L402 156L401 155z"/>
<path style="fill:#7dd6d2; stroke:none;" d="M402 155L403 156L402 155z"/>
<path style="fill:#b2e7e4; stroke:none;" d="M403.667 155.333L404.333 155.667L403.667 155.333M106 156L107 157L106 156z"/>
<path style="fill:#7dd6d2; stroke:none;" d="M107 156L108 157L107 156z"/>
<path style="fill:#56cac4; stroke:none;" d="M108 156L109 157L108 156M191 156L192 157L191 156z"/>
<path style="fill:#7dd6d2; stroke:none;" d="M192 156L193 157L192 156z"/>
<path style="fill:#b2e7e4; stroke:none;" d="M193 156L194 157L193 156M319 156L320 157L319 156z"/>
<path style="fill:#7dd6d2; stroke:none;" d="M320 156L321 157L320 156z"/>
<path style="fill:#56cac4; stroke:none;" d="M321 156L322 157L321 156M404 156L405 157L404 156z"/>
<path style="fill:#7dd6d2; stroke:none;" d="M405 156L406 157L405 156z"/>
<path style="fill:#b2e7e4; stroke:none;" d="M406 156L407 157L406 156M104 157L105 158L104 157z"/>
<path style="fill:#56cac4; stroke:none;" d="M105 157L106 158L105 157M194 157L195 158L194 157z"/>
<path style="fill:#7dd6d2; stroke:none;" d="M195 157L196 158L195 157z"/>
<path style="fill:#b2e7e4; stroke:none;" d="M196 157L197 158L196 157M317 157L318 158L317 157z"/>
<path style="fill:#56cac4; stroke:none;" d="M318 157L319 158L318 157M407 157L408 158L407 157z"/>
<path style="fill:#b2e7e4; stroke:none;" d="M408 157L409 158L408 157M102 158L103 159L102 158z"/>
<path style="fill:#56cac4; stroke:none;" d="M103 158L104 159L103 158M196 158L197 159L196 158z"/>
<path style="fill:#7dd6d2; stroke:none;" d="M197 158L198 159L197 158z"/>
<path style="fill:#b2e7e4; stroke:none;" d="M198 158L199 159L198 158M314 158L315 159L314 158z"/>
<path style="fill:#7dd6d2; stroke:none;" d="M315 158L316 159L315 158z"/>
<path style="fill:#56cac4; stroke:none;" d="M316 158L317 159L316 158M409 158L410 159L409 158z"/>
<path style="fill:#b2e7e4; stroke:none;" d="M410 158L411 159L410 158M96 161L96 162L101 160L96 161z"/>
<path style="fill:#56cac4; stroke:none;" d="M101 159L102 160L101 159M198 159L199 160L198 159z"/>
<path style="fill:#7dd6d2; stroke:none;" d="M199 159L200 160L199 159z"/>
<path style="fill:#b2e7e4; stroke:none;" d="M200 159L201 160L200 159M312 159L313 160L312 159z"/>
<path style="fill:#7dd6d2; stroke:none;" d="M313 159L314 160L313 159z"/>
<path style="fill:#56cac4; stroke:none;" d="M314 159L315 160L314 159M411 159L411 160L415 162L415 161L411 159z"/>
<path style="fill:#b2e7e4; stroke:none;" d="M412.667 159.333L413.333 159.667L412.667 159.333z"/>
<path style="fill:#7dd6d2; stroke:none;" d="M99 160L100 161L99 160z"/>
<path style="fill:#56cac4; stroke:none;" d="M100 160L101 161L100 160M200 160L201 161L200 160z"/>
<path style="fill:#7dd6d2; stroke:none;" d="M201 160L202 161L201 160z"/>
<path style="fill:#b2e7e4; stroke:none;" d="M202 160L203 161L202 160M310 160L311 161L310 160z"/>
<path style="fill:#7dd6d2; stroke:none;" d="M311 160L312 161L311 160z"/>
<path style="fill:#56cac4; stroke:none;" d="M312 160L313 161L312 160z"/>
<path style="fill:#b2e7e4; stroke:none;" d="M414 160L414 161L417 162L414 160z"/>
<path style="fill:#7dd6d2; stroke:none;" d="M97 161L98 162L97 161z"/>
<path style="fill:#56cac4; stroke:none;" d="M98 161L99 162L98 161M202 161L202 162L206 164L206 163L202 161z"/>
<path style="fill:#7dd6d2; stroke:none;" d="M203 161L204 162L203 161z"/>
<path style="fill:#b2e7e4; stroke:none;" d="M204 161L205 162L204 161M308 161L307 163L308 161z"/>
<path style="fill:#7dd6d2; stroke:none;" d="M309 161L310 162L309 161z"/>
<path style="fill:#56cac4; stroke:none;" d="M310 161L311 162L310 161z"/>
<path style="fill:#7dd6d2; stroke:none;" d="M415 161L416 162L415 161z"/>
<path style="fill:#b2e7e4; stroke:none;" d="M94 162L95 163L94 162z"/>
<path style="fill:#7dd6d2; stroke:none;" d="M95 162L96 163L95 162z"/>
<path style="fill:#56cac4; stroke:none;" d="M96 162L97 163L96 162z"/>
<path style="fill:#b2e7e4; stroke:none;" d="M205 162L206 163L205 162z"/>
<path style="fill:#56cac4; stroke:none;" d="M308.667 162.333L309.333 162.667L308.667 162.333M416 162L417 163L416 162z"/>
<path style="fill:#7dd6d2; stroke:none;" d="M417 162L418 163L417 162z"/>
<path style="fill:#b2e7e4; stroke:none;" d="M418 162L419 163L418 162M92 163L91 165L92 163z"/>
<path style="fill:#7dd6d2; stroke:none;" d="M93 163L94 164L93 163z"/>
<path style="fill:#56cac4; stroke:none;" d="M94 163L95 164L94 163z"/>
<path style="fill:#7dd6d2; stroke:none;" d="M206 163L207 164L206 163z"/>
<path style="fill:#b2e7e4; stroke:none;" d="M207 163L208 164L207 163M305 163L306 164L305 163z"/>
<path style="fill:#7dd6d2; stroke:none;" d="M306 163L307 164L306 163z"/>
<path style="fill:#56cac4; stroke:none;" d="M307 163L308 164L307 163M418 163L419 164L418 163z"/>
<path style="fill:#7dd6d2; stroke:none;" d="M419 163L420 164L419 163z"/>
<path style="fill:#b2e7e4; stroke:none;" d="M420 163L422 165L420 163z"/>
<path style="fill:#56cac4; stroke:none;" d="M92 164L93 165L92 164M207 164L208 165L207 164z"/>
<path style="fill:#7dd6d2; stroke:none;" d="M208 164L209 165L208 164z"/>
<path style="fill:#b2e7e4; stroke:none;" d="M209 164L211 166L209 164M303 164L302 166L303 164z"/>
<path style="fill:#7dd6d2; stroke:none;" d="M304 164L305 165L304 164z"/>
<path style="fill:#56cac4; stroke:none;" d="M305 164L306 165L305 164M420 164L421 165L420 164z"/>
<path style="fill:#b2e7e4; stroke:none;" d="M89 165L88 167L89 165z"/>
<path style="fill:#7dd6d2; stroke:none;" d="M90 165L91 166L90 165z"/>
<path style="fill:#56cac4; stroke:none;" d="M91 165L92 166L91 165M209 165L210 166L209 165z"/>
<path style="fill:#7dd6d2; stroke:none;" d="M303 165L304 166L303 165z"/>
<path style="fill:#56cac4; stroke:none;" d="M421 165L422 166L421 165z"/>
<path style="fill:#7dd6d2; stroke:none;" d="M422 165L423 166L422 165z"/>
<path style="fill:#b2e7e4; stroke:none;" d="M423 165L425 167L423 165z"/>
<path style="fill:#56cac4; stroke:none;" d="M89 166L90 167L89 166M210 166L211 167L210 166z"/>
<path style="fill:#7dd6d2; stroke:none;" d="M211 166L213 168L211 166z"/>
<path style="fill:#b2e7e4; stroke:none;" d="M212 166L213 167L212 166M300 166L299 168L300 166z"/>
<path style="fill:#7dd6d2; stroke:none;" d="M301 166L302 167L301 166z"/>
<path style="fill:#56cac4; stroke:none;" d="M302 166L303 167L302 166M423 166L424 167L423 166z"/>
<path style="fill:#b2e7e4; stroke:none;" d="M86 167L85 169L86 167z"/>
<path style="fill:#7dd6d2; stroke:none;" d="M87 167L86 169L87 167z"/>
<path style="fill:#56cac4; stroke:none;" d="M88 167L89 168L88 167z"/>
<path style="fill:#b2e7e4; stroke:none;" d="M213 167L214 168L213 167z"/>
<path style="fill:#7dd6d2; stroke:none;" d="M300 167L301 168L300 167z"/>
<path style="fill:#56cac4; stroke:none;" d="M424 167L426 169L424 167z"/>
<path style="fill:#7dd6d2; stroke:none;" d="M425 167L427 169L425 167z"/>
<path style="fill:#b2e7e4; stroke:none;" d="M426 167L427 168L426 167z"/>
<path style="fill:#56cac4; stroke:none;" d="M87 168L88 169L87 168M213 168L215 170L213 168z"/>
<path style="fill:#7dd6d2; stroke:none;" d="M214 168L216 170L214 168z"/>
<path style="fill:#b2e7e4; stroke:none;" d="M215 168L216 169L215 168M297 168L295 171L297 168z"/>
<path style="fill:#7dd6d2; stroke:none;" d="M298 168L297 170L298 168z"/>
<path style="fill:#56cac4; stroke:none;" d="M299 168L300 169L299 168z"/>
<path style="fill:#b2e7e4; stroke:none;" d="M427 168L428 169L427 168z"/>
<path style="fill:#7dd6d2; stroke:none;" d="M84 169L82 172L84 169z"/>
<path style="fill:#56cac4; stroke:none;" d="M85 169L86 170L85 169z"/>
<path style="fill:#b2e7e4; stroke:none;" d="M216 169L218 171L216 169z"/>
<path style="fill:#56cac4; stroke:none;" d="M298 169L299 170L298 169M427 169L429 171L427 169z"/>
<path style="fill:#7dd6d2; stroke:none;" d="M428 169L431 172L428 169z"/>
<path style="fill:#b2e7e4; stroke:none;" d="M429 169L430 170L429 169M82 170L83 171L82 170z"/>
<path style="fill:#56cac4; stroke:none;" d="M84 170L85 171L84 170M216 170L217 171L216 170M296 170L297 171L296 170z"/>
<path style="fill:#b2e7e4; stroke:none;" d="M430 170L431 171L430 170M81 171L80 173L81 171z"/>
<path style="fill:#56cac4; stroke:none;" d="M217 171L218 172L217 171z"/>
<path style="fill:#7dd6d2; stroke:none;" d="M218 171L221 174L218 171z"/>
<path style="fill:#b2e7e4; stroke:none;" d="M219 171L220 172L219 171M293 171L288 177L293 171z"/>
<path style="fill:#7dd6d2; stroke:none;" d="M294 171L295 172L294 171z"/>
<path style="fill:#56cac4; stroke:none;" d="M295 171L296 172L295 171z"/>
<path style="fill:#b2e7e4; stroke:none;" d="M431 171L433 173L431 171z"/>
<path style="fill:#56cac4; stroke:none;" d="M81 172L82 173L81 172z"/>
<path style="fill:#b2e7e4; stroke:none;" d="M220 172L221 173L220 172z"/>
<path style="fill:#7dd6d2; stroke:none;" d="M293 172L294 173L293 172z"/>
<path style="fill:#56cac4; stroke:none;" d="M431 172L432 173L431 172z"/>
<path style="fill:#b2e7e4; stroke:none;" d="M78 173L68 184L78 173z"/>
<path style="fill:#7dd6d2; stroke:none;" d="M79 173L77 176L79 173z"/>
<path style="fill:#56cac4; stroke:none;" d="M80 173L81 174L80 173z"/>
<path style="fill:#b2e7e4; stroke:none;" d="M221 173L224 176L221 173z"/>
<path style="fill:#7dd6d2; stroke:none;" d="M292 173L293 174L292 173z"/>
<path style="fill:#56cac4; stroke:none;" d="M432 173L435 176L432 173z"/>
<path style="fill:#7dd6d2; stroke:none;" d="M433 173L445 185L433 173z"/>
<path style="fill:#b2e7e4; stroke:none;" d="M434 173L435 174L434 173z"/>
<path style="fill:#56cac4; stroke:none;" d="M79 174L80 175L79 174M221 174L222 175L221 174M291 174L292 175L291 174z"/>
<path style="fill:#b2e7e4; stroke:none;" d="M435 174L436 175L435 174z"/>
<path style="fill:#56cac4; stroke:none;" d="M78 175L79 176L78 175M222 175L223 176L222 175M290 175L291 176L290 175z"/>
<path style="fill:#b2e7e4; stroke:none;" d="M436 175L437 176L436 175z"/>
<path style="fill:#7dd6d2; stroke:none;" d="M76 176L77 177L76 176z"/>
<path style="fill:#56cac4; stroke:none;" d="M223 176L225 178L223 176z"/>
<path style="fill:#7dd6d2; stroke:none;" d="M224 176L225 177L224 176z"/>
<path style="fill:#56cac4; stroke:none;" d="M289 176L290 177L289 176z"/>
<path style="fill:#b2e7e4; stroke:none;" d="M437 176L438 177L437 176z"/>
<path style="fill:#7dd6d2; stroke:none;" d="M75 177L76 178L75 177M225 177L226 178L225 177M287 177L288 178L287 177z"/>
<path style="fill:#56cac4; stroke:none;" d="M288 177L289 178L288 177z"/>
<path style="fill:#b2e7e4; stroke:none;" d="M438 177L439 178L438 177z"/>
<path style="fill:#7dd6d2; stroke:none;" d="M74 178L75 179L74 178M226 178L227 179L226 178M286 178L287 179L286 178z"/>
<path style="fill:#b2e7e4; stroke:none;" d="M439 178L440 179L439 178z"/>
<path style="fill:#7dd6d2; stroke:none;" d="M73 179L74 180L73 179M227 179L231 183L227 179z"/>
<path style="fill:#b2e7e4; stroke:none;" d="M228 179L229 180L228 179z"/>
<path style="fill:#7dd6d2; stroke:none;" d="M285 179L282 183L285 179z"/>
<path style="fill:#b2e7e4; stroke:none;" d="M440 179L441 180L440 179z"/>
<path style="fill:#7dd6d2; stroke:none;" d="M72 180L73 181L72 180z"/>
<path style="fill:#56cac4; stroke:none;" d="M227 180L228 181L227 180z"/>
<path style="fill:#b2e7e4; stroke:none;" d="M229 180L230 181L229 180M283 180L284 181L283 180z"/>
<path style="fill:#56cac4; stroke:none;" d="M285 180L286 181L285 180z"/>
<path style="fill:#b2e7e4; stroke:none;" d="M441 180L442 181L441 180z"/>
<path style="fill:#7dd6d2; stroke:none;" d="M71 181L72 182L71 181z"/>
<path style="fill:#56cac4; stroke:none;" d="M228 181L229 182L228 181z"/>
<path style="fill:#b2e7e4; stroke:none;" d="M230 181L231 182L230 181z"/>
<path style="fill:#56cac4; stroke:none;" d="M284 181L285 182L284 181z"/>
<path style="fill:#b2e7e4; stroke:none;" d="M442 181L443 182L442 181z"/>
<path style="fill:#7dd6d2; stroke:none;" d="M70 182L71 183L70 182z"/>
<path style="fill:#56cac4; stroke:none;" d="M229 182L230 183L229 182M283 182L284 183L283 182z"/>
<path style="fill:#b2e7e4; stroke:none;" d="M443 182L444 183L443 182z"/>
<path style="fill:#7dd6d2; stroke:none;" d="M69 183L70 184L69 183z"/>
<path style="fill:#56cac4; stroke:none;" d="M230 183L234 187L230 183z"/>
<path style="fill:#b2e7e4; stroke:none;" d="M231 183L232 184L231 183M281 183L274 191L281 183z"/>
<path style="fill:#56cac4; stroke:none;" d="M282 183L283 184L282 183z"/>
<path style="fill:#b2e7e4; stroke:none;" d="M444 183L445 184L444 183z"/>
<path style="fill:#7dd6d2; stroke:none;" d="M68 184L69 185L68 184z"/>
<path style="fill:#b2e7e4; stroke:none;" d="M232 184L233 185L232 184z"/>
<path style="fill:#56cac4; stroke:none;" d="M281 184L282 185L281 184z"/>
<path style="fill:#7dd6d2; stroke:none;" d="M67 185L66 187L67 185z"/>
<path style="fill:#b2e7e4; stroke:none;" d="M233 185L234 186L233 185z"/>
<path style="fill:#56cac4; stroke:none;" d="M280 185L281 186L280 185z"/>
<path style="fill:#7dd6d2; stroke:none;" d="M445 185L447 187L445 185z"/>
<path style="fill:#56cac4; stroke:none;" d="M67 186L68 187L67 186z"/>
<path style="fill:#b2e7e4; stroke:none;" d="M234 186L238 190L234 186z"/>
<path style="fill:#56cac4; stroke:none;" d="M279 186L280 187L279 186M445 186L446 187L445 186z"/>
<path style="fill:#b2e7e4; stroke:none;" d="M65 187L63 190L65 187z"/>
<path style="fill:#56cac4; stroke:none;" d="M66 187L67 188L66 187z"/>
<path style="fill:#7dd6d2; stroke:none;" d="M234 187L235 188L234 187M278 187L279 188L278 187z"/>
<path style="fill:#56cac4; stroke:none;" d="M446 187L448 189L446 187z"/>
<path style="fill:#b2e7e4; stroke:none;" d="M447 187L448 188L447 187z"/>
<path style="fill:#56cac4; stroke:none;" d="M65 188L66 189L65 188z"/>
<path style="fill:#7dd6d2; stroke:none;" d="M235 188L236 189L235 188M277 188L278 189L277 188z"/>
<path style="fill:#b2e7e4; stroke:none;" d="M448 188L450 190L448 188z"/>
<path style="fill:#7dd6d2; stroke:none;" d="M64 189L65 190L64 189M236 189L237 190L236 189M276 189L277 190L276 189M448 189L449 190L448 189M63 190L62 192L63 190M237 190L238 191L237 190M275 190L276 191L275 190M449 190L450 191L449 190z"/>
<path style="fill:#56cac4; stroke:none;" d="M63 191L64 192L63 191z"/>
<path style="fill:#7dd6d2; stroke:none;" d="M238 191L239 192L238 191M274 191L275 192L274 191M450 191L451 192L450 191z"/>
<path style="fill:#b2e7e4; stroke:none;" d="M61 192L62 193L61 192z"/>
<path style="fill:#56cac4; stroke:none;" d="M62 192L63 193L62 192M238 192L240 194L238 192z"/>
<path style="fill:#b2e7e4; stroke:none;" d="M239 192L240 193L239 192z"/>
<path style="fill:#7dd6d2; stroke:none;" d="M273 192L274 193L273 192z"/>
<path style="fill:#56cac4; stroke:none;" d="M450 192L452 194L450 192z"/>
<path style="fill:#b2e7e4; stroke:none;" d="M451 192L452 193L451 192z"/>
<path style="fill:#56cac4; stroke:none;" d="M61 193L62 194L61 193z"/>
<path style="fill:#b2e7e4; stroke:none;" d="M240 193L244 197L240 193M272 193L268 198L272 193z"/>
<path style="fill:#7dd6d2; stroke:none;" d="M60 194L61 195L60 194M240 194L241 195L240 194z"/>
<path style="fill:#56cac4; stroke:none;" d="M272 194L273 195L272 194z"/>
<path style="fill:#7dd6d2; stroke:none;" d="M452 194L453 195L452 194z"/>
<path style="fill:#b2e7e4; stroke:none;" d="M59 195L58 197L59 195z"/>
<path style="fill:#56cac4; stroke:none;" d="M60 195L61 196L60 195z"/>
<path style="fill:#7dd6d2; stroke:none;" d="M241 195L245 199L241 195z"/>
<path style="fill:#56cac4; stroke:none;" d="M271 195L272 196L271 195M452 195L454 197L452 195z"/>
<path style="fill:#b2e7e4; stroke:none;" d="M453 195L454 196L453 195z"/>
<path style="fill:#7dd6d2; stroke:none;" d="M59 196L60 197L59 196z"/>
<path style="fill:#56cac4; stroke:none;" d="M241 196L242 197L241 196M270 196L271 197L270 196z"/>
<path style="fill:#b2e7e4; stroke:none;" d="M454 196L455 197L454 196z"/>
<path style="fill:#7dd6d2; stroke:none;" d="M58 197L59 198L58 197z"/>
<path style="fill:#56cac4; stroke:none;" d="M242 197L243 198L242 197z"/>
<path style="fill:#7dd6d2; stroke:none;" d="M269 197L270 198L269 197M454 197L455 198L454 197z"/>
<path style="fill:#b2e7e4; stroke:none;" d="M57 198L58 199L57 198z"/>
<path style="fill:#56cac4; stroke:none;" d="M58 198L59 199L58 198M243 198L244 199L243 198z"/>
<path style="fill:#7dd6d2; stroke:none;" d="M268 198L269 199L268 198z"/>
<path style="fill:#56cac4; stroke:none;" d="M454 198L455 199L454 198z"/>
<path style="fill:#b2e7e4; stroke:none;" d="M455 198L457 202L458 202L455 198z"/>
<path style="fill:#7dd6d2; stroke:none;" d="M57 199L58 200L57 199z"/>
<path style="fill:#56cac4; stroke:none;" d="M244 199L246 201L244 199z"/>
<path style="fill:#b2e7e4; stroke:none;" d="M245 199L246 200L245 199z"/>
<path style="fill:#7dd6d2; stroke:none;" d="M267 199L268 200L267 199M455 199L456 200L455 199z"/>
<path style="fill:#b2e7e4; stroke:none;" d="M56 200L55 202L56 200M246 200L250 204L246 200z"/>
<path style="fill:#7dd6d2; stroke:none;" d="M266 200L267 201L266 200z"/>
<path style="fill:#56cac4; stroke:none;" d="M56 201L57 202L56 201z"/>
<path style="fill:#7dd6d2; stroke:none;" d="M246 201L247 202L246 201z"/>
<path style="fill:#b2e7e4; stroke:none;" d="M265 201L262 205L265 201z"/>
<path style="fill:#56cac4; stroke:none;" d="M266 201L267 202L266 201M456 201L457 202L456 201z"/>
<path style="fill:#7dd6d2; stroke:none;" d="M55 202L56 203L55 202M247 202L251 206L247 202z"/>
<path style="fill:#56cac4; stroke:none;" d="M265 202L266 203L265 202z"/>
<path style="fill:#7dd6d2; stroke:none;" d="M457 202L458 203L457 202z"/>
<path style="fill:#b2e7e4; stroke:none;" d="M54 203L55 204L54 203z"/>
<path style="fill:#56cac4; stroke:none;" d="M55 203L56 204L55 203M247 203L248 204L247 203M264 203L265 204L264 203M457 203L458 204L457 203z"/>
<path style="fill:#b2e7e4; stroke:none;" d="M458 203L459 204L458 203z"/>
<path style="fill:#7dd6d2; stroke:none;" d="M54 204L55 205L54 204z"/>
<path style="fill:#56cac4; stroke:none;" d="M248 204L249 205L248 204z"/>
<path style="fill:#7dd6d2; stroke:none;" d="M263 204L264 205L263 204M458 204L459 205L458 204z"/>
<path style="fill:#b2e7e4; stroke:none;" d="M53 205L54 206L53 205z"/>
<path style="fill:#56cac4; stroke:none;" d="M54 205L55 206L54 205M138 205L138 206L141 206L138 205z"/>
<path style="fill:#7dd6d2; stroke:none;" d="M141 205L141 206L145 206L141 205z"/>
<path style="fill:#b2e7e4; stroke:none;" d="M145 205L145 206L154 206L145 205z"/>
<path style="fill:#7dd6d2; stroke:none;" d="M154 205L154 206L159 206L154 205z"/>
<path style="fill:#56cac4; stroke:none;" d="M159.667 205.333L160.333 205.667L159.667 205.333M249 205L250 206L249 205z"/>
<path style="fill:#7dd6d2; stroke:none;" d="M262 205L263 206L262 205z"/>
<path style="fill:#56cac4; stroke:none;" d="M352 205L352 206L355 206L352 205z"/>
<path style="fill:#7dd6d2; stroke:none;" d="M355 205L355 206L359 206L355 205z"/>
<path style="fill:#b2e7e4; stroke:none;" d="M359 205L359 206L368 206L359 205z"/>
<path style="fill:#7dd6d2; stroke:none;" d="M368 205L368 206L372 206L368 205z"/>
<path style="fill:#56cac4; stroke:none;" d="M372 205L372 206L375 206L372 205M458 205L459 206L458 205z"/>
<path style="fill:#b2e7e4; stroke:none;" d="M459 205L460 206L459 205z"/>
<path style="fill:#7dd6d2; stroke:none;" d="M53 206L54 207L53 206z"/>
<path style="fill:#56cac4; stroke:none;" d="M134.667 206.333L135.333 206.667L134.667 206.333z"/>
<path style="fill:#7dd6d2; stroke:none;" d="M136.667 206.333L137.333 206.667L136.667 206.333z"/>
<path style="fill:#b2e7e4; stroke:none;" d="M138 206L138 207L142 207L138 206z"/>
<path style="fill:#ffffff; stroke:none;" d="M218 257C211.18 245.202 199.802 234.202 190.715 224.004C183.777 216.218 174.973 210.93 165 208.039C113.092 192.996 75.5124 260.282 117 295.699C122.572 300.456 128.985 303.311 136 305.255C143.489 307.33 151.355 307.52 159 306.245C168.202 304.712 176.659 301.108 184 295.331C197.175 284.963 206.659 269.313 218 257z"/>
<path style="fill:#b2e7e4; stroke:none;" d="M157 206L157 207L161 207L157 206z"/>
<path style="fill:#7dd6d2; stroke:none;" d="M161 206L161 207L164 207L161 206z"/>
<path style="fill:#56cac4; stroke:none;" d="M164.667 206.333L165.333 206.667L164.667 206.333M250 206L253 209L250 206z"/>
<path style="fill:#b2e7e4; stroke:none;" d="M251 206L252 207L251 206z"/>
<path style="fill:#7dd6d2; stroke:none;" d="M261 206L262 207L261 206z"/>
<path style="fill:#56cac4; stroke:none;" d="M347.667 206.333L348.333 206.667L347.667 206.333z"/>
<path style="fill:#7dd6d2; stroke:none;" d="M349 206L349 207L352 207L349 206z"/>
<path style="fill:#b2e7e4; stroke:none;" d="M352 206L352 207L356 207L352 206z"/>
<path style="fill:#ffffff; stroke:none;" d="M295 256C301.803 267.769 313.216 278.817 322.285 288.996C328.259 295.7 335.59 300.509 344 303.564C364.846 311.137 391.174 304.203 404.211 286C422.69 260.2 412.97 220.162 382 209.345C374.486 206.72 366.963 205.541 359 206.09C348.567 206.808 338.32 210.598 330 216.9C316.242 227.32 306.897 243.57 295 256z"/>
<path style="fill:#b2e7e4; stroke:none;" d="M371 206L371 207L375 207L371 206z"/>
<path style="fill:#7dd6d2; stroke:none;" d="M375.667 206.333L376.333 206.667L375.667 206.333z"/>
<path style="fill:#56cac4; stroke:none;" d="M377.667 206.333L378.333 206.667L377.667 206.333z"/>
<path style="fill:#7dd6d2; stroke:none;" d="M459 206L460 207L459 206z"/>
<path style="fill:#b2e7e4; stroke:none;" d="M52 207L53 208L52 207z"/>
<path style="fill:#56cac4; stroke:none;" d="M53 207L54 208L53 207M131.667 207.333L132.333 207.667L131.667 207.333z"/>
<path style="fill:#7dd6d2; stroke:none;" d="M133 207L134 208L133 207z"/>
<path style="fill:#b2e7e4; stroke:none;" d="M134 207L134 208L137 208L134 207M163.667 207.333L164.333 207.667L163.667 207.333z"/>
<path style="fill:#7dd6d2; stroke:none;" d="M165.667 207.333L166.333 207.667L165.667 207.333z"/>
<path style="fill:#56cac4; stroke:none;" d="M167.667 207.333L168.333 207.667L167.667 207.333z"/>
<path style="fill:#b2e7e4; stroke:none;" d="M252 207L253 208L252 207z"/>
<path style="fill:#7dd6d2; stroke:none;" d="M260 207L261 208L260 207z"/>
<path style="fill:#56cac4; stroke:none;" d="M344.667 207.333L345.333 207.667L344.667 207.333z"/>
<path style="fill:#7dd6d2; stroke:none;" d="M346.667 207.333L347.333 207.667L346.667 207.333z"/>
<path style="fill:#b2e7e4; stroke:none;" d="M348.667 207.333L349.333 207.667L348.667 207.333M376 207L376 208L384 210L384 209L376 207z"/>
<path style="fill:#7dd6d2; stroke:none;" d="M379 207L380 208L379 207z"/>
<path style="fill:#56cac4; stroke:none;" d="M380.667 207.333L381.333 207.667L380.667 207.333M459 207L460 208L459 207z"/>
<path style="fill:#b2e7e4; stroke:none;" d="M460 207L461 208L460 207z"/>
<path style="fill:#7dd6d2; stroke:none;" d="M52 208L53 209L52 208z"/>
<path style="fill:#56cac4; stroke:none;" d="M129 208L130 209L129 208z"/>
<path style="fill:#7dd6d2; stroke:none;" d="M130 208L131 209L130 208z"/>
<path style="fill:#b2e7e4; stroke:none;" d="M131 208L131 209L134 209L131 208M166 208L166 209L171 210L171 209L166 208z"/>
<path style="fill:#7dd6d2; stroke:none;" d="M169 208L170 209L169 208z"/>
<path style="fill:#56cac4; stroke:none;" d="M170 208L171 209L170 208z"/>
<path style="fill:#b2e7e4; stroke:none;" d="M253 208L255 210L253 208M259 208L256 212L259 208z"/>
<path style="fill:#56cac4; stroke:none;" d="M342 208L343 209L342 208z"/>
<path style="fill:#7dd6d2; stroke:none;" d="M343 208L344 209L343 208z"/>
<path style="fill:#b2e7e4; stroke:none;" d="M344 208L344 209L347 209L344 208z"/>
<path style="fill:#7dd6d2; stroke:none;" d="M382 208L383 209L382 208z"/>
<path style="fill:#56cac4; stroke:none;" d="M383 208L384 209L383 208z"/>
<path style="fill:#7dd6d2; stroke:none;" d="M460 208L461 209L460 208z"/>
<path style="fill:#b2e7e4; stroke:none;" d="M51 209L52 210L51 209z"/>
<path style="fill:#56cac4; stroke:none;" d="M52 209L53 210L52 209M125 211L128 210L125 211z"/>
<path style="fill:#7dd6d2; stroke:none;" d="M128 209L129 210L128 209z"/>
<path style="fill:#b2e7e4; stroke:none;" d="M129.667 209.333L130.333 209.667L129.667 209.333z"/>
<path style="fill:#7dd6d2; stroke:none;" d="M171 209L172 210L171 209z"/>
<path style="fill:#56cac4; stroke:none;" d="M172 209L172 210L177 212L177 211L172 209z"/>
<path style="fill:#7dd6d2; stroke:none;" d="M253 209L254 210L253 209z"/>
<path style="fill:#56cac4; stroke:none;" d="M259 209L260 210L259 209M336 211L336 212L341 210L336 211z"/>
<path style="fill:#7dd6d2; stroke:none;" d="M341 209L342 210L341 209z"/>
<path style="fill:#b2e7e4; stroke:none;" d="M342.667 209.333L343.333 209.667L342.667 209.333z"/>
<path style="fill:#7dd6d2; stroke:none;" d="M384 209L385 210L384 209z"/>
<path style="fill:#56cac4; stroke:none;" d="M385 209L385 210L388 211L385 209M460 209L461 210L460 209z"/>
<path style="fill:#b2e7e4; stroke:none;" d="M461 209L462 210L461 209z"/>
<path style="fill:#7dd6d2; stroke:none;" d="M51 210L52 211L51 210M126 210L127 211L126 210z"/>
<path style="fill:#b2e7e4; stroke:none;" d="M127 210L128 211L127 210M172 210L173 211L172 210z"/>
<path style="fill:#7dd6d2; stroke:none;" d="M173 210L174 211L173 210M254 210L256 212L254 210z"/>
<path style="fill:#56cac4; stroke:none;" d="M258 210L259 211L258 210z"/>
<path style="fill:#7dd6d2; stroke:none;" d="M339 210L340 211L339 210z"/>
<path style="fill:#b2e7e4; stroke:none;" d="M340 210L341 211L340 210M385 210L386 211L385 210z"/>
<path style="fill:#7dd6d2; stroke:none;" d="M386 210L387 211L386 210M461 210L462 211L461 210z"/>
<path style="fill:#b2e7e4; stroke:none;" d="M50 211L51 212L50 211z"/>
<path style="fill:#56cac4; stroke:none;" d="M51 211L52 212L51 211M123 211L124 212L123 211z"/>
<path style="fill:#7dd6d2; stroke:none;" d="M124 211L125 212L124 211z"/>
<path style="fill:#b2e7e4; stroke:none;" d="M125 211L126 212L125 211M174 211L175 212L174 211z"/>
<path style="fill:#7dd6d2; stroke:none;" d="M175 211L176 212L175 211z"/>
<path style="fill:#56cac4; stroke:none;" d="M254 211L255 212L254 211z"/>
<path style="fill:#7dd6d2; stroke:none;" d="M257 211L258 212L257 211M337 211L338 212L337 211z"/>
<path style="fill:#b2e7e4; stroke:none;" d="M338 211L339 212L338 211M387 211L388 212L387 211z"/>
<path style="fill:#7dd6d2; stroke:none;" d="M388 211L389 212L388 211z"/>
<path style="fill:#56cac4; stroke:none;" d="M389 211L390 212L389 211M461 211L462 212L461 211z"/>
<path style="fill:#b2e7e4; stroke:none;" d="M462 211L463 212L462 211z"/>
<path style="fill:#7dd6d2; stroke:none;" d="M50 212L51 213L50 212z"/>
<path style="fill:#56cac4; stroke:none;" d="M121 212L120 214L121 212z"/>
<path style="fill:#7dd6d2; stroke:none;" d="M122 212L123 213L122 212z"/>
<path style="fill:#b2e7e4; stroke:none;" d="M123 212L124 213L123 212M176 212L177 213L176 212z"/>
<path style="fill:#7dd6d2; stroke:none;" d="M177 212L178 213L177 212z"/>
<path style="fill:#56cac4; stroke:none;" d="M178 212L179 213L178 212M255.667 212.333L256.333 212.667L255.667 212.333M334 212L335 213L334 212z"/>
<path style="fill:#7dd6d2; stroke:none;" d="M335 212L336 213L335 212z"/>
<path style="fill:#b2e7e4; stroke:none;" d="M336 212L337 213L336 212M389 212L390 213L389 212z"/>
<path style="fill:#7dd6d2; stroke:none;" d="M390 212L392 214L390 212z"/>
<path style="fill:#56cac4; stroke:none;" d="M391 212L392 213L391 212z"/>
<path style="fill:#7dd6d2; stroke:none;" d="M462 212L463 213L462 212z"/>
<path style="fill:#b2e7e4; stroke:none;" d="M49 213L48 217L49 217L49 213z"/>
<path style="fill:#56cac4; stroke:none;" d="M50 213L51 214L50 213z"/>
<path style="fill:#7dd6d2; stroke:none;" d="M121 213L122 214L121 213z"/>
<path style="fill:#b2e7e4; stroke:none;" d="M178 213L180 215L178 213z"/>
<path style="fill:#7dd6d2; stroke:none;" d="M179 213L181 215L179 213z"/>
<path style="fill:#56cac4; stroke:none;" d="M180 213L181 214L180 213M332 213L331 215L332 213z"/>
<path style="fill:#7dd6d2; stroke:none;" d="M333 213L332 215L333 213z"/>
<path style="fill:#b2e7e4; stroke:none;" d="M334 213L335 214L334 213z"/>
<path style="fill:#56cac4; stroke:none;" d="M392 213L393 214L392 213M462.333 213.667L462.667 214.333L462.333 213.667z"/>
<path style="fill:#b2e7e4; stroke:none;" d="M463 213L464 217L465 217L463 213z"/>
<path style="fill:#56cac4; stroke:none;" d="M118 214L114 219L118 214z"/>
<path style="fill:#7dd6d2; stroke:none;" d="M119 214L118 216L119 214z"/>
<path style="fill:#b2e7e4; stroke:none;" d="M120 214L121 215L120 214z"/>
<path style="fill:#56cac4; stroke:none;" d="M181 214L182 215L181 214z"/>
<path style="fill:#b2e7e4; stroke:none;" d="M333 214L334 215L333 214M392 214L394 216L392 214z"/>
<path style="fill:#7dd6d2; stroke:none;" d="M393 214L395 216L393 214z"/>
<path style="fill:#56cac4; stroke:none;" d="M394 214L395 215L394 214z"/>
<path style="fill:#7dd6d2; stroke:none;" d="M49 215L50 216L49 215z"/>
<path style="fill:#b2e7e4; stroke:none;" d="M119 215L120 216L119 215M181 215L184 218L181 215z"/>
<path style="fill:#7dd6d2; stroke:none;" d="M182 215L183 216L182 215M330 215L328 218L330 215z"/>
<path style="fill:#b2e7e4; stroke:none;" d="M331 215L332 216L331 215z"/>
<path style="fill:#56cac4; stroke:none;" d="M395 215L398 218L395 215z"/>
<path style="fill:#7dd6d2; stroke:none;" d="M463 215L464 216L463 215z"/>
<path style="fill:#56cac4; stroke:none;" d="M49 216L50 217L49 216z"/>
<path style="fill:#b2e7e4; stroke:none;" d="M117 216L118 217L117 216z"/>
<path style="fill:#7dd6d2; stroke:none;" d="M183 216L184 217L183 216z"/>
<path style="fill:#b2e7e4; stroke:none;" d="M330 216L331 217L330 216M395 216L396 217L395 216z"/>
<path style="fill:#56cac4; stroke:none;" d="M463 216L464 217L463 216z"/>
<path style="fill:#7dd6d2; stroke:none;" d="M48 217L49 218L48 217z"/>
<path style="fill:#b2e7e4; stroke:none;" d="M116 217L117 218L116 217z"/>
<path style="fill:#7dd6d2; stroke:none;" d="M184 217L185 218L184 217z"/>
<path style="fill:#b2e7e4; stroke:none;" d="M329 217L330 218L329 217M396 217L397 218L396 217z"/>
<path style="fill:#7dd6d2; stroke:none;" d="M464 217L465 218L464 217z"/>
<path style="fill:#b2e7e4; stroke:none;" d="M47.3333 218.667L47.6667 219.333L47.3333 218.667z"/>
<path style="fill:#56cac4; stroke:none;" d="M48 218L49 219L48 218z"/>
<path style="fill:#b2e7e4; stroke:none;" d="M115 218L116 219L115 218z"/>
<path style="fill:#7dd6d2; stroke:none;" d="M185 218L186 219L185 218z"/>
<path style="fill:#56cac4; stroke:none;" d="M186 218L190 222L186 218z"/>
<path style="fill:#7dd6d2; stroke:none;" d="M327 218L328 219L327 218z"/>
<path style="fill:#b2e7e4; stroke:none;" d="M397 218L404 225L397 218z"/>
<path style="fill:#7dd6d2; stroke:none;" d="M398 218L399 219L398 218z"/>
<path style="fill:#56cac4; stroke:none;" d="M464 218L465 219L464 218z"/>
<path style="fill:#b2e7e4; stroke:none;" d="M465.333 218.667L465.667 219.333L465.333 218.667z"/>
<path style="fill:#7dd6d2; stroke:none;" d="M113 219L110 223L113 219z"/>
<path style="fill:#b2e7e4; stroke:none;" d="M114 219L115 220L114 219M186 219L187 220L186 219z"/>
<path style="fill:#56cac4; stroke:none;" d="M325 219L323 222L325 219z"/>
<path style="fill:#b2e7e4; stroke:none;" d="M326 219L327 220L326 219z"/>
<path style="fill:#7dd6d2; stroke:none;" d="M399 219L400 220L399 219M47 220L48 221L47 220z"/>
<path style="fill:#b2e7e4; stroke:none;" d="M113 220L114 221L113 220M187 220L188 221L187 220M325 220L326 221L325 220z"/>
<path style="fill:#7dd6d2; stroke:none;" d="M400 220L402 222L400 220z"/>
<path style="fill:#56cac4; stroke:none;" d="M401 220L402 221L401 220z"/>
<path style="fill:#7dd6d2; stroke:none;" d="M465 220L466 221L465 220z"/>
<path style="fill:#b2e7e4; stroke:none;" d="M46.3333 221.667L46.6667 222.333L46.3333 221.667z"/>
<path style="fill:#56cac4; stroke:none;" d="M47.3333 221.667L47.6667 222.333L47.3333 221.667z"/>
<path style="fill:#b2e7e4; stroke:none;" d="M112 221L113 222L112 221M188 221L189 222L188 221M324 221L325 222L324 221z"/>
<path style="fill:#56cac4; stroke:none;" d="M465.333 221.667L465.667 222.333L465.333 221.667z"/>
<path style="fill:#b2e7e4; stroke:none;" d="M466.333 221.667L466.667 222.333L466.333 221.667M111 222L112 223L111 222M189 222L190 223L189 222M323 222L324 223L323 222z"/>
<path style="fill:#7dd6d2; stroke:none;" d="M402 222L403 223L402 222M46 223L47 224L46 223z"/>
<path style="fill:#56cac4; stroke:none;" d="M109 223L108 225L109 223z"/>
<path style="fill:#b2e7e4; stroke:none;" d="M110 223L111 224L110 223z"/>
<path style="fill:#7dd6d2; stroke:none;" d="M190 223L191 224L190 223M322 223L323 224L322 223z"/>
<path style="fill:#56cac4; stroke:none;" d="M403 223L404 224L403 223z"/>
<path style="fill:#7dd6d2; stroke:none;" d="M466 223L467 224L466 223z"/>
<path style="fill:#b2e7e4; stroke:none;" d="M45.3333 224.667L45.6667 225.333L45.3333 224.667z"/>
<path style="fill:#56cac4; stroke:none;" d="M46.3333 224.667L46.6667 225.333L46.3333 224.667z"/>
<path style="fill:#b2e7e4; stroke:none;" d="M109 224L110 225L109 224z"/>
<path style="fill:#7dd6d2; stroke:none;" d="M191 224L192 225L191 224M321 224L322 225L321 224z"/>
<path style="fill:#56cac4; stroke:none;" d="M404 224L405 225L404 224M466 224L466 227L467 227L466 224z"/>
<path style="fill:#b2e7e4; stroke:none;" d="M467.333 224.667L467.667 225.333L467.333 224.667z"/>
<path style="fill:#7dd6d2; stroke:none;" d="M108 225L107 227L108 225M192 225L194 227L192 225M320 225L321 226L320 225M404 225L406 227L404 225M45.3333 226.667L45.6667 227.333L45.3333 226.667z"/>
<path style="fill:#b2e7e4; stroke:none;" d="M108 226L109 227L108 226M192 226L193 227L192 226z"/>
<path style="fill:#56cac4; stroke:none;" d="M319 226L315 231L319 226z"/>
<path style="fill:#b2e7e4; stroke:none;" d="M320 226L321 227L320 226M404 226L405 227L404 226z"/>
<path style="fill:#7dd6d2; stroke:none;" d="M467.333 226.667L467.667 227.333L467.333 226.667z"/>
<path style="fill:#b2e7e4; stroke:none;" d="M44 227L44 230L45 230L44 227z"/>
<path style="fill:#56cac4; stroke:none;" d="M106 227L105 229L106 227z"/>
<path style="fill:#b2e7e4; stroke:none;" d="M107 227L108 228L107 227M193 227L196 230L193 227z"/>
<path style="fill:#56cac4; stroke:none;" d="M194 227L195 228L194 227z"/>
<path style="fill:#b2e7e4; stroke:none;" d="M319 227L320 228L319 227M405 227L408 233L409 233L405 227z"/>
<path style="fill:#56cac4; stroke:none;" d="M406 227L407 228L406 227z"/>
<path style="fill:#b2e7e4; stroke:none;" d="M468 227L468 230L469 230L468 227z"/>
<path style="fill:#56cac4; stroke:none;" d="M45 228L45 231L46 231L45 228z"/>
<path style="fill:#7dd6d2; stroke:none;" d="M106 228L105 230L106 228z"/>
<path style="fill:#56cac4; stroke:none;" d="M195 228L196 229L195 228z"/>
<path style="fill:#b2e7e4; stroke:none;" d="M318 228L319 229L318 228z"/>
<path style="fill:#56cac4; stroke:none;" d="M407 228L408 229L407 228M467.333 228.667L467.667 229.333L467.333 228.667z"/>
<path style="fill:#b2e7e4; stroke:none;" d="M106 229L107 230L106 229z"/>
<path style="fill:#56cac4; stroke:none;" d="M196 229L198 231L196 229z"/>
<path style="fill:#b2e7e4; stroke:none;" d="M317 229L318 230L317 229z"/>
<path style="fill:#7dd6d2; stroke:none;" d="M407 229L408 230L407 229M44 230L44 233L45 233L44 230z"/>
<path style="fill:#56cac4; stroke:none;" d="M104 230L105 231L104 230z"/>
<path style="fill:#b2e7e4; stroke:none;" d="M105 230L104 233L105 230z"/>
<path style="fill:#7dd6d2; stroke:none;" d="M196 230L197 231L196 230M316 230L317 231L316 230z"/>
<path style="fill:#56cac4; stroke:none;" d="M408 230L409 231L408 230z"/>
<path style="fill:#7dd6d2; stroke:none;" d="M468.333 230.667L468.667 231.333L468.333 230.667z"/>
<path style="fill:#b2e7e4; stroke:none;" d="M43 231L43 235L44 235L43 231z"/>
<path style="fill:#7dd6d2; stroke:none;" d="M104 231L105 232L104 231M197 231L198 232L197 231M315 231L316 232L315 231M408 231L409 232L408 231z"/>
<path style="fill:#b2e7e4; stroke:none;" d="M469 231L469 235L470 235L469 231z"/>
<path style="fill:#56cac4; stroke:none;" d="M103 232L104 233L103 232z"/>
<path style="fill:#7dd6d2; stroke:none;" d="M198 232L201 235L198 232M314 232L313 234L314 232z"/>
<path style="fill:#56cac4; stroke:none;" d="M409 232L410 233L409 232M468 232L468 235L469 235L468 232M44.3333 233.667L44.6667 234.333L44.3333 233.667z"/>
<path style="fill:#7dd6d2; stroke:none;" d="M103 233L104 234L103 233z"/>
<path style="fill:#b2e7e4; stroke:none;" d="M198 233L199 234L198 233M314 233L315 234L314 233z"/>
<path style="fill:#7dd6d2; stroke:none;" d="M409 233L410 234L409 233z"/>
<path style="fill:#56cac4; stroke:none;" d="M102 234L103 235L102 234z"/>
<path style="fill:#b2e7e4; stroke:none;" d="M103 234L104 235L103 234M199 234L200 235L199 234z"/>
<path style="fill:#56cac4; stroke:none;" d="M312 234L313 235L312 234z"/>
<path style="fill:#b2e7e4; stroke:none;" d="M313 234L314 235L313 234M409 234L410 235L409 234z"/>
<path style="fill:#56cac4; stroke:none;" d="M410 234L411 235L410 234z"/>
<path style="fill:#7dd6d2; stroke:none;" d="M43 235L43 238L44 238L43 235M102 235L103 236L102 235z"/>
<path style="fill:#b2e7e4; stroke:none;" d="M200 235L202 237L200 235z"/>
<path style="fill:#56cac4; stroke:none;" d="M201 235L202 236L201 235z"/>
<path style="fill:#7dd6d2; stroke:none;" d="M312 235L313 236L312 235M410 235L411 236L410 235M469 235L469 238L470 238L469 235z"/>
<path style="fill:#b2e7e4; stroke:none;" d="M42 236L42 241L43 241L42 236M102.333 236.667L102.667 237.333L102.333 236.667z"/>
<path style="fill:#56cac4; stroke:none;" d="M202 236L205 239L202 236z"/>
<path style="fill:#7dd6d2; stroke:none;" d="M311 236L310 238L311 236z"/>
<path style="fill:#b2e7e4; stroke:none;" d="M410.333 236.667L410.667 237.333L410.333 236.667M470 236L470 241L471 241L470 236z"/>
<path style="fill:#56cac4; stroke:none;" d="M101 237L102 238L101 237z"/>
<path style="fill:#7dd6d2; stroke:none;" d="M202 237L203 238L202 237z"/>
<path style="fill:#b2e7e4; stroke:none;" d="M311 237L312 238L311 237z"/>
<path style="fill:#56cac4; stroke:none;" d="M411 237L412 238L411 237M43 238L43 241L44 241L43 238z"/>
<path style="fill:#7dd6d2; stroke:none;" d="M101 238L102 239L101 238M203 238L207 242L203 238z"/>
<path style="fill:#56cac4; stroke:none;" d="M309 238L306 242L309 238z"/>
<path style="fill:#b2e7e4; stroke:none;" d="M310 238L311 239L310 238z"/>
<path style="fill:#7dd6d2; stroke:none;" d="M411 238L412 239L411 238z"/>
<path style="fill:#56cac4; stroke:none;" d="M469 238L469 241L470 241L469 238M100 239L101 240L100 239z"/>
<path style="fill:#b2e7e4; stroke:none;" d="M101.333 239.667L101.667 240.333L101.333 239.667M203 239L204 240L203 239M309 239L310 240L309 239M411.333 239.667L411.667 240.333L411.333 239.667z"/>
<path style="fill:#56cac4; stroke:none;" d="M412 239L413 240L412 239z"/>
<path style="fill:#7dd6d2; stroke:none;" d="M100.333 240.667L100.667 241.333L100.333 240.667z"/>
<path style="fill:#b2e7e4; stroke:none;" d="M204 240L205 241L204 240M308 240L309 241L308 240z"/>
<path style="fill:#7dd6d2; stroke:none;" d="M412.333 240.667L412.667 241.333L412.333 240.667M42 241L42 245L43 245L42 241z"/>
<path style="fill:#b2e7e4; stroke:none;" d="M205 241L206 242L205 241M307 241L308 242L307 241z"/>
<path style="fill:#7dd6d2; stroke:none;" d="M470 241L470 245L471 245L470 241z"/>
<path style="fill:#b2e7e4; stroke:none;" d="M100 242L100 245L101 245L100 242M206 242L215 252L206 242z"/>
<path style="fill:#56cac4; stroke:none;" d="M207 242L208 243L207 242z"/>
<path style="fill:#7dd6d2; stroke:none;" d="M306 242L303 246L306 242z"/>
<path style="fill:#b2e7e4; stroke:none;" d="M412 242L412 245L413 245L412 242M41 243L41 254L42 254L41 243z"/>
<path style="fill:#56cac4; stroke:none;" d="M99 243L100 244L99 243M208 243L209 244L208 243z"/>
<path style="fill:#b2e7e4; stroke:none;" d="M306 243L307 244L306 243z"/>
<path style="fill:#56cac4; stroke:none;" d="M413 243L414 244L413 243z"/>
<path style="fill:#b2e7e4; stroke:none;" d="M471 243L471 252L472 252L471 243z"/>
<path style="fill:#7dd6d2; stroke:none;" d="M99.3333 244.667L99.6667 245.333L99.3333 244.667z"/>
<path style="fill:#56cac4; stroke:none;" d="M209 244L212 247L209 244z"/>
<path style="fill:#b2e7e4; stroke:none;" d="M305 244L306 245L305 244z"/>
<path style="fill:#7dd6d2; stroke:none;" d="M413.333 244.667L413.667 245.333L413.333 244.667z"/>
<path style="fill:#56cac4; stroke:none;" d="M42 245L42 251L43 251L42 245z"/>
<path style="fill:#7dd6d2; stroke:none;" d="M209 245L210 246L209 245z"/>
<path style="fill:#b2e7e4; stroke:none;" d="M304 245L305 246L304 245z"/>
<path style="fill:#56cac4; stroke:none;" d="M470 245L470 250L471 250L470 245z"/>
<path style="fill:#b2e7e4; stroke:none;" d="M99 246L99 252L100 252L99 246z"/>
<path style="fill:#7dd6d2; stroke:none;" d="M210 246L211 247L210 246z"/>
<path style="fill:#56cac4; stroke:none;" d="M302 246L301 248L302 246z"/>
<path style="fill:#b2e7e4; stroke:none;" d="M303 246L304 247L303 246M413 246L413 252L414 252L413 246z"/>
<path style="fill:#56cac4; stroke:none;" d="M98 247L98 250L99 250L98 247z"/>
<path style="fill:#7dd6d2; stroke:none;" d="M211 247L212 248L211 247z"/>
<path style="fill:#b2e7e4; stroke:none;" d="M302 247L303 248L302 247z"/>
<path style="fill:#56cac4; stroke:none;" d="M414 247L414 250L415 250L414 247z"/>
<path style="fill:#7dd6d2; stroke:none;" d="M212 248L213 249L212 248z"/>
<path style="fill:#b2e7e4; stroke:none;" d="M301 248L302 249L301 248z"/>
<path style="fill:#56cac4; stroke:none;" d="M213 249L214 250L213 249z"/>
<path style="fill:#7dd6d2; stroke:none;" d="M300 249L301 250L300 249M98 250L98 263L99 263L98 250z"/>
<path style="fill:#56cac4; stroke:none;" d="M214 250L215 251L214 250z"/>
<path style="fill:#7dd6d2; stroke:none;" d="M299 250L297 253L299 250M414 250L414 262L415 262L414 250z"/>
<path style="fill:#56cac4; stroke:none;" d="M215 251L216 252L215 251z"/>
<path style="fill:#b2e7e4; stroke:none;" d="M299 251L300 252L299 251z"/>
<path style="fill:#7dd6d2; stroke:none;" d="M215 252L216 253L215 252z"/>
<path style="fill:#b2e7e4; stroke:none;" d="M298 252L299 253L298 252z"/>
<path style="fill:#7dd6d2; stroke:none;" d="M471 252L471 260L472 260L471 252M216 253L218 255L216 253z"/>
<path style="fill:#56cac4; stroke:none;" d="M296 253L295 255L296 253z"/>
<path style="fill:#b2e7e4; stroke:none;" d="M297 253L298 254L297 253z"/>
<path style="fill:#7dd6d2; stroke:none;" d="M41 254L41 259L42 259L41 254z"/>
<path style="fill:#b2e7e4; stroke:none;" d="M216 254L217 255L216 254M296 254L297 255L296 254M217 255L218 256L217 255z"/>
<path style="fill:#56cac4; stroke:none;" d="M218 255L219 256L218 255z"/>
<path style="fill:#b2e7e4; stroke:none;" d="M295 255L296 256L295 255z"/>
<path style="fill:#7dd6d2; stroke:none;" d="M218 256L219 257L218 256M294 256L295 257L294 256z"/>
<path style="fill:#b2e7e4; stroke:none;" d="M217 257L214 261L217 257z"/>
<path style="fill:#56cac4; stroke:none;" d="M294 257L295 258L294 257z"/>
<path style="fill:#b2e7e4; stroke:none;" d="M295 257L297 259L295 257z"/>
<path style="fill:#56cac4; stroke:none;" d="M217 258L218 259L217 258z"/>
<path style="fill:#7dd6d2; stroke:none;" d="M295 258L296 259L295 258z"/>
<path style="fill:#b2e7e4; stroke:none;" d="M41 259L41 270L42 270L41 259z"/>
<path style="fill:#56cac4; stroke:none;" d="M216 259L217 260L216 259z"/>
<path style="fill:#7dd6d2; stroke:none;" d="M296 259L298 261L296 259M215 260L216 261L215 260z"/>
<path style="fill:#56cac4; stroke:none;" d="M296 260L297 261L296 260z"/>
<path style="fill:#b2e7e4; stroke:none;" d="M413 260L413 265L414 265L413 260M471 260L471 268L472 268L471 260M99 261L99 267L100 267L99 261z"/>
<path style="fill:#7dd6d2; stroke:none;" d="M214 261L215 262L214 261z"/>
<path style="fill:#56cac4; stroke:none;" d="M297 261L301 265L297 261z"/>
<path style="fill:#b2e7e4; stroke:none;" d="M298 261L299 262L298 261z"/>
<path style="fill:#7dd6d2; stroke:none;" d="M213 262L214 263L213 262z"/>
<path style="fill:#b2e7e4; stroke:none;" d="M299 262L300 263L299 262z"/>
<path style="fill:#56cac4; stroke:none;" d="M414.333 262.667L414.667 263.333L414.333 262.667M470 262L470 266L471 266L470 262M42 263L42 268L43 268L42 263M98 263L98 266L99 266L98 263z"/>
<path style="fill:#b2e7e4; stroke:none;" d="M212 263L207 269L212 263M300 263L301 264L300 263z"/>
<path style="fill:#56cac4; stroke:none;" d="M212 264L213 265L212 264z"/>
<path style="fill:#b2e7e4; stroke:none;" d="M301 264L305 268L301 264z"/>
<path style="fill:#56cac4; stroke:none;" d="M211 265L212 266L211 265z"/>
<path style="fill:#7dd6d2; stroke:none;" d="M301 265L302 266L301 265M413 265L413 268L414 268L413 265z"/>
<path style="fill:#56cac4; stroke:none;" d="M210 266L211 267L210 266z"/>
<path style="fill:#7dd6d2; stroke:none;" d="M302 266L305 269L302 266M470 266L470 270L471 270L470 266M99.3333 267.667L99.6667 268.333L99.3333 267.667M209 267L210 268L209 267z"/>
<path style="fill:#56cac4; stroke:none;" d="M302 267L303 268L302 267z"/>
<path style="fill:#b2e7e4; stroke:none;" d="M412 267L412 270L413 270L412 267z"/>
<path style="fill:#7dd6d2; stroke:none;" d="M42 268L42 272L43 272L42 268z"/>
<path style="fill:#b2e7e4; stroke:none;" d="M100 268L100 271L101 271L100 268z"/>
<path style="fill:#7dd6d2; stroke:none;" d="M208 268L209 269L208 268z"/>
<path style="fill:#56cac4; stroke:none;" d="M303 268L304 269L303 268M413 268L414 269L413 268M99 269L100 270L99 269z"/>
<path style="fill:#7dd6d2; stroke:none;" d="M207 269L208 270L207 269z"/>
<path style="fill:#56cac4; stroke:none;" d="M304 269L306 271L304 269z"/>
<path style="fill:#b2e7e4; stroke:none;" d="M305 269L306 270L305 269M206 270L201 276L206 270z"/>
<path style="fill:#56cac4; stroke:none;" d="M207 270L208 271L207 270z"/>
<path style="fill:#b2e7e4; stroke:none;" d="M306 270L311 275L306 270z"/>
<path style="fill:#7dd6d2; stroke:none;" d="M412 270L413 271L412 270z"/>
<path style="fill:#56cac4; stroke:none;" d="M469 270L469 273L470 273L469 270z"/>
<path style="fill:#b2e7e4; stroke:none;" d="M470 270L470 275L471 275L470 270z"/>
<path style="fill:#7dd6d2; stroke:none;" d="M100.333 271.667L100.667 272.333L100.333 271.667z"/>
<path style="fill:#56cac4; stroke:none;" d="M206 271L207 272L206 271z"/>
<path style="fill:#7dd6d2; stroke:none;" d="M306 271L307 272L306 271z"/>
<path style="fill:#b2e7e4; stroke:none;" d="M411.333 271.667L411.667 272.333L411.333 271.667z"/>
<path style="fill:#56cac4; stroke:none;" d="M412 271L413 272L412 271z"/>
<path style="fill:#b2e7e4; stroke:none;" d="M42 272L42 277L43 277L42 272z"/>
<path style="fill:#56cac4; stroke:none;" d="M43 272L43 275L44 275L43 272z"/>
<path style="fill:#b2e7e4; stroke:none;" d="M101.333 272.667L101.667 273.333L101.333 272.667z"/>
<path style="fill:#56cac4; stroke:none;" d="M205 272L206 273L205 272z"/>
<path style="fill:#7dd6d2; stroke:none;" d="M307 272L308 273L307 272z"/>
<path style="fill:#56cac4; stroke:none;" d="M100 273L101 274L100 273M204 273L205 274L204 273z"/>
<path style="fill:#7dd6d2; stroke:none;" d="M308 273L311 276L308 273M411 273L412 274L411 273M469 273L469 276L470 276L469 273M101 274L102 275L101 274M203 274L204 275L203 274z"/>
<path style="fill:#56cac4; stroke:none;" d="M308 274L309 275L308 274z"/>
<path style="fill:#b2e7e4; stroke:none;" d="M410 274L406 283L407 283L410 274z"/>
<path style="fill:#56cac4; stroke:none;" d="M411 274L412 275L411 274z"/>
<path style="fill:#7dd6d2; stroke:none;" d="M43 275L43 278L44 278L43 275z"/>
<path style="fill:#56cac4; stroke:none;" d="M101 275L102 276L101 275z"/>
<path style="fill:#b2e7e4; stroke:none;" d="M102.333 275.667L102.667 276.333L102.333 275.667z"/>
<path style="fill:#7dd6d2; stroke:none;" d="M202 275L203 276L202 275z"/>
<path style="fill:#56cac4; stroke:none;" d="M309 275L310 276L309 275z"/>
<path style="fill:#7dd6d2; stroke:none;" d="M201 276L202 277L201 276z"/>
<path style="fill:#56cac4; stroke:none;" d="M310 276L313 279L310 276z"/>
<path style="fill:#b2e7e4; stroke:none;" d="M311 276L312 277L311 276z"/>
<path style="fill:#7dd6d2; stroke:none;" d="M410 276L411 277L410 276z"/>
<path style="fill:#56cac4; stroke:none;" d="M468.333 276.667L468.667 277.333L468.333 276.667z"/>
<path style="fill:#b2e7e4; stroke:none;" d="M469 276L469 280L470 280L469 276z"/>
<path style="fill:#7dd6d2; stroke:none;" d="M102 277L103 278L102 277z"/>
<path style="fill:#b2e7e4; stroke:none;" d="M200 277L198 280L200 277z"/>
<path style="fill:#56cac4; stroke:none;" d="M201 277L202 278L201 277z"/>
<path style="fill:#b2e7e4; stroke:none;" d="M312 277L313 278L312 277z"/>
<path style="fill:#56cac4; stroke:none;" d="M410 277L411 278L410 277z"/>
<path style="fill:#b2e7e4; stroke:none;" d="M43 278L43 282L44 282L43 278z"/>
<path style="fill:#56cac4; stroke:none;" d="M44.3333 278.667L44.6667 279.333L44.3333 278.667M102 278L103 279L102 278z"/>
<path style="fill:#b2e7e4; stroke:none;" d="M103 278L104 279L103 278z"/>
<path style="fill:#56cac4; stroke:none;" d="M200 278L201 279L200 278z"/>
<path style="fill:#b2e7e4; stroke:none;" d="M313 278L315 280L313 278z"/>
<path style="fill:#7dd6d2; stroke:none;" d="M409 278L410 279L409 278M468 278L468 281L469 281L468 278M103 279L104 280L103 279M199 279L200 280L199 279M313 279L314 280L313 279z"/>
<path style="fill:#56cac4; stroke:none;" d="M409 279L410 280L409 279z"/>
<path style="fill:#7dd6d2; stroke:none;" d="M44 280L44 283L45 283L44 280z"/>
<path style="fill:#56cac4; stroke:none;" d="M103 280L104 281L103 280z"/>
<path style="fill:#b2e7e4; stroke:none;" d="M104 280L109 287L104 280z"/>
<path style="fill:#7dd6d2; stroke:none;" d="M198 280L199 281L198 280M314 280L315 281L314 280M408 280L409 281L408 280z"/>
<path style="fill:#56cac4; stroke:none;" d="M467 280L467 283L468 283L467 280z"/>
<path style="fill:#7dd6d2; stroke:none;" d="M104 281L105 282L104 281M197 281L196 283L197 281M315 281L317 283L315 281z"/>
<path style="fill:#56cac4; stroke:none;" d="M408 281L409 282L408 281z"/>
<path style="fill:#b2e7e4; stroke:none;" d="M468 281L467 287L468 287L468 281z"/>
<path style="fill:#56cac4; stroke:none;" d="M104 282L105 283L104 282M197 282L198 283L197 282M315 282L316 283L315 282z"/>
<path style="fill:#7dd6d2; stroke:none;" d="M407 282L408 283L407 282z"/>
<path style="fill:#b2e7e4; stroke:none;" d="M44 283L44 286L45 286L44 283z"/>
<path style="fill:#56cac4; stroke:none;" d="M45.3333 283.667L45.6667 284.333L45.3333 283.667z"/>
<path style="fill:#7dd6d2; stroke:none;" d="M105 283L106 284L105 283z"/>
<path style="fill:#b2e7e4; stroke:none;" d="M195 283L193 286L195 283z"/>
<path style="fill:#56cac4; stroke:none;" d="M196 283L197 284L196 283M316 283L321 288L316 283z"/>
<path style="fill:#b2e7e4; stroke:none;" d="M317 283L318 284L317 283z"/>
<path style="fill:#7dd6d2; stroke:none;" d="M406 283L407 284L406 283M467 283L468 284L467 283z"/>
<path style="fill:#56cac4; stroke:none;" d="M105 284L106 285L105 284M195 284L196 285L195 284z"/>
<path style="fill:#b2e7e4; stroke:none;" d="M318 284L319 285L318 284M405 284L404 286L405 284z"/>
<path style="fill:#56cac4; stroke:none;" d="M406 284L407 285L406 284M466.333 284.667L466.667 285.333L466.333 284.667z"/>
<path style="fill:#7dd6d2; stroke:none;" d="M45.3333 285.667L45.6667 286.333L45.3333 285.667z"/>
<path style="fill:#56cac4; stroke:none;" d="M106 285L107 286L106 285M194 285L195 286L194 285z"/>
<path style="fill:#b2e7e4; stroke:none;" d="M319 285L320 286L319 285z"/>
<path style="fill:#7dd6d2; stroke:none;" d="M405 285L406 286L405 285z"/>
<path style="fill:#56cac4; stroke:none;" d="M46 286L46 289L47 289L46 286z"/>
<path style="fill:#7dd6d2; stroke:none;" d="M107 286L108 287L107 286M193 286L194 287L193 286z"/>
<path style="fill:#b2e7e4; stroke:none;" d="M320 286L321 287L320 286z"/>
<path style="fill:#7dd6d2; stroke:none;" d="M404 286L405 287L404 286M466.333 286.667L466.667 287.333L466.333 286.667z"/>
<path style="fill:#b2e7e4; stroke:none;" d="M45.3333 287.667L45.6667 288.333L45.3333 287.667z"/>
<path style="fill:#7dd6d2; stroke:none;" d="M108 287L109 288L108 287M192 287L193 288L192 287M403 287L404 288L403 287z"/>
<path style="fill:#56cac4; stroke:none;" d="M108 288L110 290L108 288z"/>
<path style="fill:#b2e7e4; stroke:none;" d="M109 288L110 289L109 288z"/>
<path style="fill:#7dd6d2; stroke:none;" d="M191 288L192 289L191 288M321 288L322 289L321 288z"/>
<path style="fill:#b2e7e4; stroke:none;" d="M402 288L395 296L402 288z"/>
<path style="fill:#56cac4; stroke:none;" d="M403 288L404 289L403 288M465 288L466 289L465 288z"/>
<path style="fill:#b2e7e4; stroke:none;" d="M466.333 288.667L466.667 289.333L466.333 288.667z"/>
<path style="fill:#7dd6d2; stroke:none;" d="M46 289L47 290L46 289z"/>
<path style="fill:#b2e7e4; stroke:none;" d="M110 289L118 297L110 289z"/>
<path style="fill:#7dd6d2; stroke:none;" d="M190 289L191 290L190 289M322 289L323 290L322 289z"/>
<path style="fill:#56cac4; stroke:none;" d="M402 289L403 290L402 289z"/>
<path style="fill:#7dd6d2; stroke:none;" d="M465.333 289.667L465.667 290.333L465.333 289.667z"/>
<path style="fill:#b2e7e4; stroke:none;" d="M46.3333 290.667L46.6667 291.333L46.3333 290.667z"/>
<path style="fill:#56cac4; stroke:none;" d="M47.3333 290.667L47.6667 291.333L47.3333 290.667z"/>
<path style="fill:#7dd6d2; stroke:none;" d="M110 290L111 291L110 290z"/>
<path style="fill:#b2e7e4; stroke:none;" d="M189 290L186 294L189 290z"/>
<path style="fill:#56cac4; stroke:none;" d="M190 290L191 291L190 290M322 290L326 294L322 290z"/>
<path style="fill:#b2e7e4; stroke:none;" d="M323 290L324 291L323 290z"/>
<path style="fill:#7dd6d2; stroke:none;" d="M401 290L402 291L401 290M111 291L112 292L111 291z"/>
<path style="fill:#56cac4; stroke:none;" d="M189 291L190 292L189 291z"/>
<path style="fill:#b2e7e4; stroke:none;" d="M324 291L325 292L324 291z"/>
<path style="fill:#7dd6d2; stroke:none;" d="M400 291L401 292L400 291z"/>
<path style="fill:#56cac4; stroke:none;" d="M464 291L465 292L464 291z"/>
<path style="fill:#b2e7e4; stroke:none;" d="M465 291L464 295L465 295L465 291z"/>
<path style="fill:#7dd6d2; stroke:none;" d="M47 292L48 293L47 292M112 292L113 293L112 292z"/>
<path style="fill:#56cac4; stroke:none;" d="M188 292L189 293L188 292z"/>
<path style="fill:#b2e7e4; stroke:none;" d="M325 292L326 293L325 292z"/>
<path style="fill:#7dd6d2; stroke:none;" d="M399 292L400 293L399 292M464 292L465 293L464 292z"/>
<path style="fill:#b2e7e4; stroke:none;" d="M47.3333 293.667L47.6667 294.333L47.3333 293.667z"/>
<path style="fill:#7dd6d2; stroke:none;" d="M113 293L114 294L113 293z"/>
<path style="fill:#56cac4; stroke:none;" d="M187 293L188 294L187 293z"/>
<path style="fill:#b2e7e4; stroke:none;" d="M326 293L327 294L326 293z"/>
<path style="fill:#7dd6d2; stroke:none;" d="M398 293L399 294L398 293z"/>
<path style="fill:#56cac4; stroke:none;" d="M48 294L49 295L48 294z"/>
<path style="fill:#7dd6d2; stroke:none;" d="M114 294L115 295L114 294M185 294L186 295L185 294z"/>
<path style="fill:#56cac4; stroke:none;" d="M186 294L187 295L186 294z"/>
<path style="fill:#7dd6d2; stroke:none;" d="M327 294L328 295L327 294z"/>
<path style="fill:#56cac4; stroke:none;" d="M397 294L398 295L397 294M463 294L464 295L463 294z"/>
<path style="fill:#7dd6d2; stroke:none;" d="M48 295L49 296L48 295z"/>
<path style="fill:#56cac4; stroke:none;" d="M115 295L116 296L115 295z"/>
<path style="fill:#b2e7e4; stroke:none;" d="M183 295L181 298L183 295z"/>
<path style="fill:#7dd6d2; stroke:none;" d="M184 295L183 297L184 295M328 295L330 297L328 295z"/>
<path style="fill:#b2e7e4; stroke:none;" d="M329 295L330 296L329 295z"/>
<path style="fill:#56cac4; stroke:none;" d="M396 295L397 296L396 295z"/>
<path style="fill:#7dd6d2; stroke:none;" d="M463 295L464 296L463 295z"/>
<path style="fill:#b2e7e4; stroke:none;" d="M48 296L49 300L50 300L48 296z"/>
<path style="fill:#56cac4; stroke:none;" d="M49 296L50 297L49 296M116 296L117 297L116 296M184 296L185 297L184 296z"/>
<path style="fill:#b2e7e4; stroke:none;" d="M330 296L332 298L330 296M393 296L391 299L393 296z"/>
<path style="fill:#7dd6d2; stroke:none;" d="M394 296L393 298L394 296z"/>
<path style="fill:#56cac4; stroke:none;" d="M395 296L396 297L395 296M462 296L463 297L462 296z"/>
<path style="fill:#b2e7e4; stroke:none;" d="M463 296L462 300L463 300L463 296z"/>
<path style="fill:#7dd6d2; stroke:none;" d="M49 297L50 298L49 297z"/>
<path style="fill:#56cac4; stroke:none;" d="M117 297L119 299L117 297z"/>
<path style="fill:#7dd6d2; stroke:none;" d="M118 297L120 299L118 297z"/>
<path style="fill:#b2e7e4; stroke:none;" d="M119 297L120 298L119 297z"/>
<path style="fill:#7dd6d2; stroke:none;" d="M182 297L183 298L182 297z"/>
<path style="fill:#56cac4; stroke:none;" d="M330 297L331 298L330 297M394 297L395 298L394 297z"/>
<path style="fill:#7dd6d2; stroke:none;" d="M462 297L463 298L462 297z"/>
<path style="fill:#b2e7e4; stroke:none;" d="M120 298L121 299L120 298M179 298L178 300L179 298z"/>
<path style="fill:#7dd6d2; stroke:none;" d="M180 298L179 300L180 298z"/>
<path style="fill:#56cac4; stroke:none;" d="M181 298L182 299L181 298M331 298L333 300L331 298z"/>
<path style="fill:#7dd6d2; stroke:none;" d="M332 298L334 300L332 298z"/>
<path style="fill:#b2e7e4; stroke:none;" d="M333 298L334 299L333 298z"/>
<path style="fill:#56cac4; stroke:none;" d="M392 298L393 299L392 298M461.333 298.667L461.667 299.333L461.333 298.667M50 299L51 300L50 299M120 299L122 301L120 299z"/>
<path style="fill:#7dd6d2; stroke:none;" d="M121 299L122 300L121 299z"/>
<path style="fill:#56cac4; stroke:none;" d="M180 299L181 300L180 299z"/>
<path style="fill:#b2e7e4; stroke:none;" d="M334 299L335 300L334 299M389 299L390 300L389 299z"/>
<path style="fill:#7dd6d2; stroke:none;" d="M390 299L391 300L390 299z"/>
<path style="fill:#56cac4; stroke:none;" d="M391 299L392 300L391 299z"/>
<path style="fill:#7dd6d2; stroke:none;" d="M50 300L51 301L50 300M122 300L123 301L122 300z"/>
<path style="fill:#b2e7e4; stroke:none;" d="M123 300L124 301L123 300M176 300L177 301L176 300z"/>
<path style="fill:#7dd6d2; stroke:none;" d="M177 300L178 301L177 300z"/>
<path style="fill:#56cac4; stroke:none;" d="M178 300L179 301L178 300M253 304L259 302C256.143 300.417 255.028 301.606 253 304M334 300L335 301L334 300z"/>
<path style="fill:#7dd6d2; stroke:none;" d="M335 300L336 301L335 300z"/>
<path style="fill:#b2e7e4; stroke:none;" d="M336 300L337 301L336 300M387 300L385 301L385 302L387 300z"/>
<path style="fill:#7dd6d2; stroke:none;" d="M388 300L389 301L388 300z"/>
<path style="fill:#56cac4; stroke:none;" d="M389 300L390 301L389 300z"/>
<path style="fill:#7dd6d2; stroke:none;" d="M461 300L462 301L461 300z"/>
<path style="fill:#b2e7e4; stroke:none;" d="M50 301L51 302L50 301z"/>
<path style="fill:#56cac4; stroke:none;" d="M51 301L52 302L51 301M123 301L124 302L123 301z"/>
<path style="fill:#7dd6d2; stroke:none;" d="M124 301L125 302L124 301z"/>
<path style="fill:#b2e7e4; stroke:none;" d="M125 301L126 302L125 301M174 301L175 302L174 301z"/>
<path style="fill:#7dd6d2; stroke:none;" d="M175 301L176 302L175 301z"/>
<path style="fill:#56cac4; stroke:none;" d="M176 301L177 302L176 301z"/>
<path style="fill:#b2e7e4; stroke:none;" d="M256 301L257 302L256 301z"/>
<path style="fill:#7dd6d2; stroke:none;" d="M257 301L258 302L257 301z"/>
<path style="fill:#56cac4; stroke:none;" d="M336 301L337 302L336 301z"/>
<path style="fill:#7dd6d2; stroke:none;" d="M337 301L338 302L337 301z"/>
<path style="fill:#b2e7e4; stroke:none;" d="M338 301L339 302L338 301z"/>
<path style="fill:#7dd6d2; stroke:none;" d="M387 301L388 302L387 301z"/>
<path style="fill:#56cac4; stroke:none;" d="M460 301L461 302L460 301z"/>
<path style="fill:#b2e7e4; stroke:none;" d="M461 301L462 302L461 301z"/>
<path style="fill:#7dd6d2; stroke:none;" d="M51 302L52 303L51 302z"/>
<path style="fill:#56cac4; stroke:none;" d="M125 302L125 303L130 305L130 304L125 302z"/>
<path style="fill:#7dd6d2; stroke:none;" d="M126 302L127 303L126 302z"/>
<path style="fill:#b2e7e4; stroke:none;" d="M127 302L128 303L127 302M172 302L173 303L172 302z"/>
<path style="fill:#7dd6d2; stroke:none;" d="M173 302L174 303L173 302z"/>
<path style="fill:#56cac4; stroke:none;" d="M174.667 302.333L175.333 302.667L174.667 302.333z"/>
<path style="fill:#b2e7e4; stroke:none;" d="M255 302L256 303L255 302z"/>
<path style="fill:#7dd6d2; stroke:none;" d="M258 302L260 304L258 302z"/>
<path style="fill:#56cac4; stroke:none;" d="M338 302L339 303L338 302z"/>
<path style="fill:#7dd6d2; stroke:none;" d="M339 302L340 303L339 302z"/>
<path style="fill:#b2e7e4; stroke:none;" d="M340 302L340 303L344 304L344 303L340 302M383 302L384 303L383 302z"/>
<path style="fill:#7dd6d2; stroke:none;" d="M384.667 302.333L385.333 302.667L384.667 302.333z"/>
<path style="fill:#56cac4; stroke:none;" d="M386 302L387 303L386 302z"/>
<path style="fill:#7dd6d2; stroke:none;" d="M460 302L461 303L460 302z"/>
<path style="fill:#b2e7e4; stroke:none;" d="M51 303L52 304L51 303z"/>
<path style="fill:#56cac4; stroke:none;" d="M52 303L53 304L52 303z"/>
<path style="fill:#7dd6d2; stroke:none;" d="M128 303L129 304L128 303z"/>
<path style="fill:#b2e7e4; stroke:none;" d="M129 303L129 304L137 306L137 305L129 303M166 304L166 305L171 304L166 304z"/>
<path style="fill:#7dd6d2; stroke:none;" d="M171 303L172 304L171 303z"/>
<path style="fill:#56cac4; stroke:none;" d="M172.667 303.333L173.333 303.667L172.667 303.333z"/>
<path style="fill:#b2e7e4; stroke:none;" d="M254 303L255 304L254 303M258 303L259 304L258 303z"/>
<path style="fill:#56cac4; stroke:none;" d="M340 303L341 304L340 303z"/>
<path style="fill:#7dd6d2; stroke:none;" d="M341 303L342 304L341 303z"/>
<path style="fill:#b2e7e4; stroke:none;" d="M380.667 303.333L381.333 303.667L380.667 303.333z"/>
<path style="fill:#7dd6d2; stroke:none;" d="M382 303L383 304L382 303z"/>
<path style="fill:#56cac4; stroke:none;" d="M383.667 303.333L384.333 303.667L383.667 303.333M459 303L460 304L459 303z"/>
<path style="fill:#b2e7e4; stroke:none;" d="M460 303L461 304L460 303z"/>
<path style="fill:#7dd6d2; stroke:none;" d="M52 304L53 305L52 304M130 304L131 305L130 304M169 304L170 305L169 304z"/>
<path style="fill:#56cac4; stroke:none;" d="M170 304L171 305L170 304z"/>
<path style="fill:#b2e7e4; stroke:none;" d="M253 304L254 305L253 304M259 304L262 307L259 304z"/>
<path style="fill:#56cac4; stroke:none;" d="M260 304L261 305L260 304M342 304L343 305L342 304z"/>
<path style="fill:#7dd6d2; stroke:none;" d="M343.667 304.333L344.333 304.667L343.667 304.333z"/>
<path style="fill:#b2e7e4; stroke:none;" d="M345.667 304.333L346.333 304.667L345.667 304.333M377.667 304.333L378.333 304.667L377.667 304.333z"/>
<path style="fill:#7dd6d2; stroke:none;" d="M379.667 304.333L380.333 304.667L379.667 304.333z"/>
<path style="fill:#56cac4; stroke:none;" d="M381.667 304.333L382.333 304.667L381.667 304.333z"/>
<path style="fill:#7dd6d2; stroke:none;" d="M459 304L460 305L459 304z"/>
<path style="fill:#b2e7e4; stroke:none;" d="M52 305L53 306L52 305z"/>
<path style="fill:#56cac4; stroke:none;" d="M53 305L54 306L53 305M131 305L132 306L131 305z"/>
<path style="fill:#7dd6d2; stroke:none;" d="M132.667 305.333L133.333 305.667L132.667 305.333z"/>
<path style="fill:#b2e7e4; stroke:none;" d="M163.667 305.333L164.333 305.667L163.667 305.333z"/>
<path style="fill:#7dd6d2; stroke:none;" d="M165.667 305.333L166.333 305.667L165.667 305.333z"/>
<path style="fill:#56cac4; stroke:none;" d="M167.667 305.333L168.333 305.667L167.667 305.333z"/>
<path style="fill:#7dd6d2; stroke:none;" d="M252 305L253 306L252 305z"/>
<path style="fill:#56cac4; stroke:none;" d="M261 305L262 306L261 305M344.667 305.333L345.333 305.667L344.667 305.333z"/>
<path style="fill:#7dd6d2; stroke:none;" d="M346.667 305.333L347.333 305.667L346.667 305.333z"/>
<path style="fill:#b2e7e4; stroke:none;" d="M348 305L348 306L351 306L348 305M373 305L373 306L376 306L373 305z"/>
<path style="fill:#7dd6d2; stroke:none;" d="M376.667 305.333L377.333 305.667L376.667 305.333z"/>
<path style="fill:#56cac4; stroke:none;" d="M378.667 305.333L379.333 305.667L378.667 305.333M458 305L459 306L458 305z"/>
<path style="fill:#b2e7e4; stroke:none;" d="M459 305L460 306L459 305z"/>
<path style="fill:#7dd6d2; stroke:none;" d="M53 306L54 307L53 306z"/>
<path style="fill:#56cac4; stroke:none;" d="M134.667 306.333L135.333 306.667L134.667 306.333z"/>
<path style="fill:#7dd6d2; stroke:none;" d="M136.667 306.333L137.333 306.667L136.667 306.333z"/>
<path style="fill:#b2e7e4; stroke:none;" d="M138 306L138 307L142 307L138 306M157 306L157 307L162 307L157 306z"/>
<path style="fill:#7dd6d2; stroke:none;" d="M162.667 306.333L163.333 306.667L162.667 306.333z"/>
<path style="fill:#56cac4; stroke:none;" d="M164.667 306.333L165.333 306.667L164.667 306.333z"/>
<path style="fill:#7dd6d2; stroke:none;" d="M251 306L250 308L251 306z"/>
<path style="fill:#56cac4; stroke:none;" d="M262 306L266 310L262 306M348.667 306.333L349.333 306.667L348.667 306.333z"/>
<path style="fill:#7dd6d2; stroke:none;" d="M350 306L350 307L353 307L350 306z"/>
<path style="fill:#b2e7e4; stroke:none;" d="M353 306L353 307L372 307L353 306z"/>
<path style="fill:#7dd6d2; stroke:none;" d="M372.667 306.333L373.333 306.667L372.667 306.333z"/>
<path style="fill:#56cac4; stroke:none;" d="M374 306L374 307L377 307L374 306z"/>
<path style="fill:#7dd6d2; stroke:none;" d="M458 306L459 307L458 306z"/>
<path style="fill:#b2e7e4; stroke:none;" d="M53 307L54 308L53 307z"/>
<path style="fill:#56cac4; stroke:none;" d="M54 307L55 308L54 307M138 307L138 308L141 308L138 307z"/>
<path style="fill:#7dd6d2; stroke:none;" d="M141 307L141 308L145 308L141 307z"/>
<path style="fill:#b2e7e4; stroke:none;" d="M145 307L145 308L155 308L145 307z"/>
<path style="fill:#7dd6d2; stroke:none;" d="M155 307L155 308L159 308L155 307z"/>
<path style="fill:#56cac4; stroke:none;" d="M159 307L159 308L162 308L159 307z"/>
<path style="fill:#b2e7e4; stroke:none;" d="M251 307L252 308L251 307z"/>
<path style="fill:#7dd6d2; stroke:none;" d="M262 307L263 308L262 307z"/>
<path style="fill:#56cac4; stroke:none;" d="M353 307L353 308L357 308L353 307z"/>
<path style="fill:#7dd6d2; stroke:none;" d="M357 307L357 308L367 308L357 307z"/>
<path style="fill:#56cac4; stroke:none;" d="M367 307L367 308L372 308L367 307M457 307L458 308L457 307z"/>
<path style="fill:#b2e7e4; stroke:none;" d="M458 307L459 308L458 307z"/>
<path style="fill:#7dd6d2; stroke:none;" d="M54 308L55 309L54 308z"/>
<path style="fill:#56cac4; stroke:none;" d="M249 308L247 311L249 308z"/>
<path style="fill:#b2e7e4; stroke:none;" d="M250 308L251 309L250 308z"/>
<path style="fill:#7dd6d2; stroke:none;" d="M263 308L266 311L263 308z"/>
<path style="fill:#b2e7e4; stroke:none;" d="M457 308L456 311L457 308M54 309L55 310L54 309z"/>
<path style="fill:#56cac4; stroke:none;" d="M55 309L56 310L55 309z"/>
<path style="fill:#b2e7e4; stroke:none;" d="M249 309L250 310L249 309M263 309L264 310L263 309z"/>
<path style="fill:#7dd6d2; stroke:none;" d="M456 309L457 310L456 309M55 310L56 311L55 310z"/>
<path style="fill:#b2e7e4; stroke:none;" d="M248 310L249 311L248 310M264 310L265 311L264 310z"/>
<path style="fill:#56cac4; stroke:none;" d="M455 310L456 311L455 310z"/>
<path style="fill:#b2e7e4; stroke:none;" d="M55 311L57 313L55 311z"/>
<path style="fill:#56cac4; stroke:none;" d="M56 311L57 312L56 311z"/>
<path style="fill:#b2e7e4; stroke:none;" d="M247 311L248 312L247 311M265 311L268 314L265 311z"/>
<path style="fill:#56cac4; stroke:none;" d="M266 311L267 312L266 311z"/>
<path style="fill:#7dd6d2; stroke:none;" d="M455 311L456 312L455 311M246 312L247 313L246 312z"/>
<path style="fill:#56cac4; stroke:none;" d="M267 312L268 313L267 312M454 312L455 313L454 312z"/>
<path style="fill:#b2e7e4; stroke:none;" d="M455 312L456 313L455 312z"/>
<path style="fill:#7dd6d2; stroke:none;" d="M57 313L58 314L57 313M245 313L243 316L245 313z"/>
<path style="fill:#56cac4; stroke:none;" d="M268 313L272 317L268 313z"/>
<path style="fill:#7dd6d2; stroke:none;" d="M454 313L455 314L454 313z"/>
<path style="fill:#b2e7e4; stroke:none;" d="M57 314L58 315L57 314z"/>
<path style="fill:#56cac4; stroke:none;" d="M58 314L59 315L58 314z"/>
<path style="fill:#b2e7e4; stroke:none;" d="M245 314L246 315L245 314z"/>
<path style="fill:#7dd6d2; stroke:none;" d="M268 314L269 315L268 314M453 314L454 315L453 314M58 315L59 316L58 315z"/>
<path style="fill:#b2e7e4; stroke:none;" d="M244 315L245 316L244 315z"/>
<path style="fill:#7dd6d2; stroke:none;" d="M269 315L272 318L269 315z"/>
<path style="fill:#56cac4; stroke:none;" d="M452 315L453 316L452 315z"/>
<path style="fill:#b2e7e4; stroke:none;" d="M453 315L454 316L453 315M58 316L60 318L58 316z"/>
<path style="fill:#56cac4; stroke:none;" d="M59 316L60 317L59 316M242 316L241 318L242 316z"/>
<path style="fill:#b2e7e4; stroke:none;" d="M243 316L244 317L243 316M269 316L270 317L269 316z"/>
<path style="fill:#7dd6d2; stroke:none;" d="M452 316L453 317L452 316z"/>
<path style="fill:#56cac4; stroke:none;" d="M60 317L61 318L60 317z"/>
<path style="fill:#b2e7e4; stroke:none;" d="M242 317L243 318L242 317M270 317L271 318L270 317z"/>
<path style="fill:#56cac4; stroke:none;" d="M451 317L450 319L451 317z"/>
<path style="fill:#7dd6d2; stroke:none;" d="M60 318L61 319L60 318z"/>
<path style="fill:#b2e7e4; stroke:none;" d="M241 318L242 319L241 318M271 318L274 321L271 318z"/>
<path style="fill:#56cac4; stroke:none;" d="M272 318L273 319L272 318z"/>
<path style="fill:#b2e7e4; stroke:none;" d="M451 318L452 319L451 318z"/>
<path style="fill:#56cac4; stroke:none;" d="M61 319L64 322L61 319z"/>
<path style="fill:#7dd6d2; stroke:none;" d="M240 319L241 320L240 319z"/>
<path style="fill:#56cac4; stroke:none;" d="M273 319L274 320L273 319z"/>
<path style="fill:#7dd6d2; stroke:none;" d="M450 319L451 320L450 319z"/>
<path style="fill:#b2e7e4; stroke:none;" d="M61 320L62 321L61 320z"/>
<path style="fill:#7dd6d2; stroke:none;" d="M239 320L240 321L239 320z"/>
<path style="fill:#56cac4; stroke:none;" d="M274 320L275 321L274 320z"/>
<path style="fill:#7dd6d2; stroke:none;" d="M449 320L448 322L449 320M62 321L63 322L62 321M238 321L234 326L238 321M274 321L275 322L274 321z"/>
<path style="fill:#b2e7e4; stroke:none;" d="M449 321L450 322L449 321z"/>
<path style="fill:#7dd6d2; stroke:none;" d="M63 322L65 324L63 322z"/>
<path style="fill:#b2e7e4; stroke:none;" d="M238 322L239 323L238 322z"/>
<path style="fill:#7dd6d2; stroke:none;" d="M275 322L279 326L275 322z"/>
<path style="fill:#56cac4; stroke:none;" d="M447 322L445 325L447 322z"/>
<path style="fill:#b2e7e4; stroke:none;" d="M448 322L449 323L448 322M63 323L64 324L63 323M237 323L238 324L237 323M275 323L276 324L275 323M447 323L448 324L447 323M64 324L66 326L64 324z"/>
<path style="fill:#56cac4; stroke:none;" d="M65 324L66 325L65 324z"/>
<path style="fill:#b2e7e4; stroke:none;" d="M236 324L237 325L236 324M276 324L277 325L276 324z"/>
<path style="fill:#7dd6d2; stroke:none;" d="M446 324L447 325L446 324z"/>
<path style="fill:#56cac4; stroke:none;" d="M66 325L68 327L66 325z"/>
<path style="fill:#b2e7e4; stroke:none;" d="M235 325L236 326L235 325M277 325L278 326L277 325z"/>
<path style="fill:#7dd6d2; stroke:none;" d="M445 325L441 330L445 325M66 326L67 327L66 326z"/>
<path style="fill:#56cac4; stroke:none;" d="M233 326L227 333L233 326z"/>
<path style="fill:#b2e7e4; stroke:none;" d="M234 326L235 327L234 326M278 326L281 329L278 326z"/>
<path style="fill:#56cac4; stroke:none;" d="M279 326L280 327L279 326z"/>
<path style="fill:#b2e7e4; stroke:none;" d="M445 326L446 327L445 326z"/>
<path style="fill:#7dd6d2; stroke:none;" d="M67 327L68 328L67 327z"/>
<path style="fill:#b2e7e4; stroke:none;" d="M233 327L234 328L233 327z"/>
<path style="fill:#56cac4; stroke:none;" d="M280 327L281 328L280 327z"/>
<path style="fill:#b2e7e4; stroke:none;" d="M444 327L445 328L444 327z"/>
<path style="fill:#7dd6d2; stroke:none;" d="M68 328L80 340L68 328z"/>
<path style="fill:#b2e7e4; stroke:none;" d="M232 328L233 329L232 328M443 328L444 329L443 328M68 329L69 330L68 329z"/>
<path style="fill:#7dd6d2; stroke:none;" d="M231 329L232 330L231 329z"/>
<path style="fill:#b2e7e4; stroke:none;" d="M281 329L282 330L281 329z"/>
<path style="fill:#56cac4; stroke:none;" d="M282 329L287 334L282 329z"/>
<path style="fill:#b2e7e4; stroke:none;" d="M442 329L443 330L442 329M69 330L70 331L69 330z"/>
<path style="fill:#7dd6d2; stroke:none;" d="M230 330L226 335L230 330M282 330L283 331L282 330z"/>
<path style="fill:#56cac4; stroke:none;" d="M440 330L436 335L440 330z"/>
<path style="fill:#b2e7e4; stroke:none;" d="M441 330L442 331L441 330M70 331L71 332L70 331M230 331L231 332L230 331z"/>
<path style="fill:#7dd6d2; stroke:none;" d="M283 331L285 333L283 331z"/>
<path style="fill:#b2e7e4; stroke:none;" d="M440 331L441 332L440 331M71 332L72 333L71 332M229 332L230 333L229 332M283 332L284 333L283 332M439 332L440 333L439 332M72 333L73 334L72 333M228 333L229 334L228 333z"/>
<path style="fill:#7dd6d2; stroke:none;" d="M285 333L286 334L285 333z"/>
<path style="fill:#b2e7e4; stroke:none;" d="M438 333L439 334L438 333M73 334L74 335L73 334M227 334L228 335L227 334M286 334L287 335L286 334M437 334L438 335L437 334M74 335L75 336L74 335z"/>
<path style="fill:#56cac4; stroke:none;" d="M224 335L221 339L224 335z"/>
<path style="fill:#7dd6d2; stroke:none;" d="M225 335L226 336L225 335z"/>
<path style="fill:#b2e7e4; stroke:none;" d="M287 335L293 341L287 335z"/>
<path style="fill:#56cac4; stroke:none;" d="M288 335L289 336L288 335z"/>
<path style="fill:#7dd6d2; stroke:none;" d="M435 335L432 339L435 335z"/>
<path style="fill:#b2e7e4; stroke:none;" d="M436 335L437 336L436 335M75 336L76 337L75 336z"/>
<path style="fill:#7dd6d2; stroke:none;" d="M224 336L225 337L224 336z"/>
<path style="fill:#56cac4; stroke:none;" d="M289 336L290 337L289 336M433 336L434 337L433 336z"/>
<path style="fill:#b2e7e4; stroke:none;" d="M435 336L436 337L435 336M76 337L77 338L76 337z"/>
<path style="fill:#56cac4; stroke:none;" d="M78 337L79 338L78 337z"/>
<path style="fill:#b2e7e4; stroke:none;" d="M223 337L224 338L223 337z"/>
<path style="fill:#56cac4; stroke:none;" d="M290 337L291 338L290 337M432 337L433 338L432 337z"/>
<path style="fill:#b2e7e4; stroke:none;" d="M434 337L435 338L434 337M77 338L78 339L77 338z"/>
<path style="fill:#56cac4; stroke:none;" d="M79 338L80 339L79 338z"/>
<path style="fill:#b2e7e4; stroke:none;" d="M222 338L223 339L222 338z"/>
<path style="fill:#7dd6d2; stroke:none;" d="M291 338L292 339L291 338z"/>
<path style="fill:#56cac4; stroke:none;" d="M431 338L429 341L431 338z"/>
<path style="fill:#b2e7e4; stroke:none;" d="M433 338L434 339L433 338M78 339L79 340L78 339z"/>
<path style="fill:#56cac4; stroke:none;" d="M80 339L82 341L80 339z"/>
<path style="fill:#7dd6d2; stroke:none;" d="M220 339L217 343L220 339z"/>
<path style="fill:#b2e7e4; stroke:none;" d="M221 339L222 340L221 339z"/>
<path style="fill:#7dd6d2; stroke:none;" d="M292 339L294 341L292 339z"/>
<path style="fill:#56cac4; stroke:none;" d="M293 339L294 340L293 339z"/>
<path style="fill:#b2e7e4; stroke:none;" d="M431.667 339.333L432.333 339.667L431.667 339.333M80 340L81 341L80 340M220 340L221 341L220 340z"/>
<path style="fill:#56cac4; stroke:none;" d="M294 340L296 342L294 340z"/>
<path style="fill:#b2e7e4; stroke:none;" d="M430 340L431 341L430 340M81 341L84 344L81 341z"/>
<path style="fill:#7dd6d2; stroke:none;" d="M82 341L83 342L82 341z"/>
<path style="fill:#56cac4; stroke:none;" d="M217 341L218 342L217 341z"/>
<path style="fill:#b2e7e4; stroke:none;" d="M219 341L220 342L219 341M294 341L295 342L294 341z"/>
<path style="fill:#56cac4; stroke:none;" d="M427 341L425 344L427 341z"/>
<path style="fill:#7dd6d2; stroke:none;" d="M428 341L427 343L428 341z"/>
<path style="fill:#b2e7e4; stroke:none;" d="M429 341L430 342L429 341z"/>
<path style="fill:#7dd6d2; stroke:none;" d="M83 342L85 344L83 342z"/>
<path style="fill:#56cac4; stroke:none;" d="M84 342L85 343L84 342M216 342L217 343L216 342z"/>
<path style="fill:#b2e7e4; stroke:none;" d="M295 342L297 344L295 342z"/>
<path style="fill:#7dd6d2; stroke:none;" d="M296 342L298 344L296 342z"/>
<path style="fill:#56cac4; stroke:none;" d="M297 342L298 343L297 342z"/>
<path style="fill:#b2e7e4; stroke:none;" d="M428 342L429 343L428 342z"/>
<path style="fill:#56cac4; stroke:none;" d="M85 343L86 344L85 343M214 343L213 345L214 343z"/>
<path style="fill:#7dd6d2; stroke:none;" d="M215 343L214 345L215 343z"/>
<path style="fill:#b2e7e4; stroke:none;" d="M216 343L217 344L216 343z"/>
<path style="fill:#56cac4; stroke:none;" d="M298 343L299 344L298 343z"/>
<path style="fill:#b2e7e4; stroke:none;" d="M426 343L427 344L426 343M85 344L87 346L85 344z"/>
<path style="fill:#7dd6d2; stroke:none;" d="M86 344L88 346L86 344z"/>
<path style="fill:#56cac4; stroke:none;" d="M87 344L88 345L87 344z"/>
<path style="fill:#b2e7e4; stroke:none;" d="M215 344L216 345L215 344M298 344L303 348L303 347L298 344z"/>
<path style="fill:#7dd6d2; stroke:none;" d="M299 344L300 345L299 344z"/>
<path style="fill:#56cac4; stroke:none;" d="M423 344L422 346L423 344z"/>
<path style="fill:#7dd6d2; stroke:none;" d="M424 344L423 346L424 344z"/>
<path style="fill:#b2e7e4; stroke:none;" d="M425 344L426 345L425 344z"/>
<path style="fill:#56cac4; stroke:none;" d="M88 345L90 347L88 345z"/>
<path style="fill:#7dd6d2; stroke:none;" d="M212 345L211 347L212 345z"/>
<path style="fill:#b2e7e4; stroke:none;" d="M213 345L214 346L213 345z"/>
<path style="fill:#7dd6d2; stroke:none;" d="M300 345L301 346L300 345z"/>
<path style="fill:#56cac4; stroke:none;" d="M301 345L302 346L301 345z"/>
<path style="fill:#b2e7e4; stroke:none;" d="M424 345L425 346L424 345M88 346L89 347L88 346z"/>
<path style="fill:#56cac4; stroke:none;" d="M210 346L209 348L210 346z"/>
<path style="fill:#b2e7e4; stroke:none;" d="M212 346L213 347L212 346z"/>
<path style="fill:#56cac4; stroke:none;" d="M302 346L303 347L302 346M420 346L419 348L420 346z"/>
<path style="fill:#7dd6d2; stroke:none;" d="M421 346L420 348L421 346z"/>
<path style="fill:#b2e7e4; stroke:none;" d="M422 346L423 347L422 346M89 347L90 348L89 347z"/>
<path style="fill:#7dd6d2; stroke:none;" d="M90 347L91 348L90 347z"/>
<path style="fill:#56cac4; stroke:none;" d="M91 347L93 349L91 347z"/>
<path style="fill:#b2e7e4; stroke:none;" d="M210 347L211 348L210 347z"/>
<path style="fill:#7dd6d2; stroke:none;" d="M303 347L304 348L303 347z"/>
<path style="fill:#56cac4; stroke:none;" d="M304 347L305 348L304 347z"/>
<path style="fill:#b2e7e4; stroke:none;" d="M421 347L422 348L421 347M91 348L92 349L91 348z"/>
<path style="fill:#56cac4; stroke:none;" d="M207 348L208 349L207 348z"/>
<path style="fill:#7dd6d2; stroke:none;" d="M208 348L209 349L208 348z"/>
<path style="fill:#b2e7e4; stroke:none;" d="M209 348L210 349L209 348M304 348L306 350L304 348z"/>
<path style="fill:#7dd6d2; stroke:none;" d="M305 348L307 350L305 348z"/>
<path style="fill:#56cac4; stroke:none;" d="M306 348L307 349L306 348M417 348L412 351L412 352L418 349L417 348z"/>
<path style="fill:#7dd6d2; stroke:none;" d="M418 348L419 349L418 348z"/>
<path style="fill:#b2e7e4; stroke:none;" d="M419 348L420 349L419 348M92 349L93 350L92 349z"/>
<path style="fill:#7dd6d2; stroke:none;" d="M93 349L94 350L93 349z"/>
<path style="fill:#56cac4; stroke:none;" d="M94 349L95 350L94 349M205 349L204 351L205 349z"/>
<path style="fill:#7dd6d2; stroke:none;" d="M206 349L207 350L206 349z"/>
<path style="fill:#b2e7e4; stroke:none;" d="M207 349L208 350L207 349z"/>
<path style="fill:#56cac4; stroke:none;" d="M307 349L308 350L307 349z"/>
<path style="fill:#b2e7e4; stroke:none;" d="M417 349L418 350L417 349M94 350L95 351L94 350z"/>
<path style="fill:#7dd6d2; stroke:none;" d="M95 350L96 351L95 350z"/>
<path style="fill:#56cac4; stroke:none;" d="M96 350L97 351L96 350z"/>
<path style="fill:#b2e7e4; stroke:none;" d="M205 350L206 351L205 350M307 350L308 351L307 350z"/>
<path style="fill:#7dd6d2; stroke:none;" d="M308 350L309 351L308 350z"/>
<path style="fill:#56cac4; stroke:none;" d="M309 350L310 351L309 350z"/>
<path style="fill:#7dd6d2; stroke:none;" d="M415 350L416 351L415 350z"/>
<path style="fill:#b2e7e4; stroke:none;" d="M96 351L96 352L101 354L101 353L96 351z"/>
<path style="fill:#7dd6d2; stroke:none;" d="M97 351L98 352L97 351z"/>
<path style="fill:#56cac4; stroke:none;" d="M98 351L99 352L98 351M202 351L203 352L202 351z"/>
<path style="fill:#7dd6d2; stroke:none;" d="M203 351L204 352L203 351z"/>
<path style="fill:#b2e7e4; stroke:none;" d="M204 351L205 352L204 351M309 351L310 352L309 351z"/>
<path style="fill:#7dd6d2; stroke:none;" d="M310 351L311 352L310 351z"/>
<path style="fill:#56cac4; stroke:none;" d="M311 351L312 352L311 351z"/>
<path style="fill:#7dd6d2; stroke:none;" d="M413 351L414 352L413 351z"/>
<path style="fill:#b2e7e4; stroke:none;" d="M414 351L415 352L414 351z"/>
<path style="fill:#7dd6d2; stroke:none;" d="M99 352L100 353L99 352z"/>
<path style="fill:#56cac4; stroke:none;" d="M100 352L101 353L100 352M200 352L201 353L200 352z"/>
<path style="fill:#7dd6d2; stroke:none;" d="M201 352L202 353L201 352z"/>
<path style="fill:#b2e7e4; stroke:none;" d="M202 352L203 353L202 352M311 352L312 353L311 352z"/>
<path style="fill:#7dd6d2; stroke:none;" d="M312 352L313 353L312 352z"/>
<path style="fill:#56cac4; stroke:none;" d="M313 352L314 353L313 352M410 352L411 353L410 352z"/>
<path style="fill:#7dd6d2; stroke:none;" d="M411 352L412 353L411 352z"/>
<path style="fill:#b2e7e4; stroke:none;" d="M412 352L413 353L412 352z"/>
<path style="fill:#56cac4; stroke:none;" d="M101 353L102 354L101 353M198 353L199 354L198 353z"/>
<path style="fill:#7dd6d2; stroke:none;" d="M199 353L200 354L199 353z"/>
<path style="fill:#b2e7e4; stroke:none;" d="M200 353L201 354L200 353M313 353L314 354L313 353z"/>
<path style="fill:#7dd6d2; stroke:none;" d="M314 353L315 354L314 353z"/>
<path style="fill:#56cac4; stroke:none;" d="M408 353L409 354L408 353z"/>
<path style="fill:#7dd6d2; stroke:none;" d="M409 353L410 354L409 353z"/>
<path style="fill:#b2e7e4; stroke:none;" d="M410 353L411 354L410 353M102 354L103 355L102 354z"/>
<path style="fill:#56cac4; stroke:none;" d="M103 354L104 355L103 354M196 354L197 355L196 354z"/>
<path style="fill:#7dd6d2; stroke:none;" d="M197 354L198 355L197 354z"/>
<path style="fill:#b2e7e4; stroke:none;" d="M198 354L199 355L198 354M315 354L316 355L315 354z"/>
<path style="fill:#7dd6d2; stroke:none;" d="M316 354L317 355L316 354z"/>
<path style="fill:#56cac4; stroke:none;" d="M406 354L407 355L406 354z"/>
<path style="fill:#7dd6d2; stroke:none;" d="M407 354L408 355L407 354z"/>
<path style="fill:#b2e7e4; stroke:none;" d="M408 354L409 355L408 354M104 355L105 356L104 355z"/>
<path style="fill:#56cac4; stroke:none;" d="M105 355L106 356L105 355M194 355L195 356L194 355z"/>
<path style="fill:#7dd6d2; stroke:none;" d="M195 355L196 356L195 355z"/>
<path style="fill:#b2e7e4; stroke:none;" d="M196 355L197 356L196 355M317 355L318 356L317 355z"/>
<path style="fill:#7dd6d2; stroke:none;" d="M318 355L319 356L318 355z"/>
<path style="fill:#56cac4; stroke:none;" d="M319 355L320 356L319 355M404 355L405 356L404 355z"/>
<path style="fill:#b2e7e4; stroke:none;" d="M405 355L406 356L405 355M106 356L107 357L106 356z"/>
<path style="fill:#7dd6d2; stroke:none;" d="M107 356L108 357L107 356z"/>
<path style="fill:#56cac4; stroke:none;" d="M108 356L109 357L108 356M191 356L192 357L191 356z"/>
<path style="fill:#7dd6d2; stroke:none;" d="M192 356L193 357L192 356z"/>
<path style="fill:#b2e7e4; stroke:none;" d="M193 356L194 357L193 356M320 356L321 357L320 356z"/>
<path style="fill:#7dd6d2; stroke:none;" d="M321 356L322 357L321 356z"/>
<path style="fill:#56cac4; stroke:none;" d="M322 356L323 357L322 356M401 356L402 357L401 356z"/>
<path style="fill:#7dd6d2; stroke:none;" d="M402 356L403 357L402 356z"/>
<path style="fill:#b2e7e4; stroke:none;" d="M403 356L404 357L403 356M108.667 357.333L109.333 357.667L108.667 357.333z"/>
<path style="fill:#7dd6d2; stroke:none;" d="M110 357L111 358L110 357z"/>
<path style="fill:#56cac4; stroke:none;" d="M111 357L112 358L111 357M188.667 357.333L189.333 357.667L188.667 357.333z"/>
<path style="fill:#7dd6d2; stroke:none;" d="M190 357L191 358L190 357z"/>
<path style="fill:#b2e7e4; stroke:none;" d="M191 357L192 358L191 357M322 357L323 358L322 357z"/>
<path style="fill:#7dd6d2; stroke:none;" d="M323 357L324 358L323 357z"/>
<path style="fill:#56cac4; stroke:none;" d="M324.667 357.333L325.333 357.667L324.667 357.333M398 357L399 358L398 357z"/>
<path style="fill:#7dd6d2; stroke:none;" d="M399 357L400 358L399 357z"/>
<path style="fill:#b2e7e4; stroke:none;" d="M400.667 357.333L401.333 357.667L400.667 357.333M111 358L112 359L111 358z"/>
<path style="fill:#7dd6d2; stroke:none;" d="M112.667 358.333L113.333 358.667L112.667 358.333z"/>
<path style="fill:#56cac4; stroke:none;" d="M114 358L115 359L114 358M185.667 358.333L186.333 358.667L185.667 358.333z"/>
<path style="fill:#7dd6d2; stroke:none;" d="M187 358L188 359L187 358z"/>
<path style="fill:#b2e7e4; stroke:none;" d="M188 358L189 359L188 358M325 358L326 359L325 358z"/>
<path style="fill:#7dd6d2; stroke:none;" d="M326.667 358.333L327.333 358.667L326.667 358.333z"/>
<path style="fill:#56cac4; stroke:none;" d="M328 358L329 359L328 358M395 358L396 359L395 358z"/>
<path style="fill:#7dd6d2; stroke:none;" d="M396 358L397 359L396 358z"/>
<path style="fill:#b2e7e4; stroke:none;" d="M397.667 358.333L398.333 358.667L397.667 358.333M113.667 359.333L114.333 359.667L113.667 359.333z"/>
<path style="fill:#7dd6d2; stroke:none;" d="M115.667 359.333L116.333 359.667L115.667 359.333z"/>
<path style="fill:#56cac4; stroke:none;" d="M117 359L118 360L117 359M182.667 359.333L183.333 359.667L182.667 359.333z"/>
<path style="fill:#7dd6d2; stroke:none;" d="M184 359L185 360L184 359z"/>
<path style="fill:#b2e7e4; stroke:none;" d="M185.667 359.333L186.333 359.667L185.667 359.333M327.667 359.333L328.333 359.667L327.667 359.333z"/>
<path style="fill:#7dd6d2; stroke:none;" d="M329.667 359.333L330.333 359.667L329.667 359.333z"/>
<path style="fill:#56cac4; stroke:none;" d="M331 359L332 360L331 359M392 359L393 360L392 359z"/>
<path style="fill:#7dd6d2; stroke:none;" d="M393 359L394 360L393 359z"/>
<path style="fill:#b2e7e4; stroke:none;" d="M394.667 359.333L395.333 359.667L394.667 359.333M116 360L116 361L119 361L116 360z"/>
<path style="fill:#7dd6d2; stroke:none;" d="M119 360L120 361L119 360z"/>
<path style="fill:#56cac4; stroke:none;" d="M120 360L121 361L120 360M179 360L180 361L179 360z"/>
<path style="fill:#7dd6d2; stroke:none;" d="M180.667 360.333L181.333 360.667L180.667 360.333z"/>
<path style="fill:#b2e7e4; stroke:none;" d="M182.667 360.333L183.333 360.667L182.667 360.333M330 360L330 361L333 361L330 360z"/>
<path style="fill:#7dd6d2; stroke:none;" d="M333 360L334 361L333 360z"/>
<path style="fill:#56cac4; stroke:none;" d="M334.667 360.333L335.333 360.667L334.667 360.333M388 360L389 361L388 360z"/>
<path style="fill:#7dd6d2; stroke:none;" d="M389.667 360.333L390.333 360.667L389.667 360.333z"/>
<path style="fill:#b2e7e4; stroke:none;" d="M391.667 360.333L392.333 360.667L391.667 360.333M120.667 361.333L121.333 361.667L120.667 361.333z"/>
<path style="fill:#7dd6d2; stroke:none;" d="M122.667 361.333L123.333 361.667L122.667 361.333z"/>
<path style="fill:#56cac4; stroke:none;" d="M124 361L125 362L124 361M175.667 361.333L176.333 361.667L175.667 361.333z"/>
<path style="fill:#7dd6d2; stroke:none;" d="M177 361L178 362L177 361z"/>
<path style="fill:#b2e7e4; stroke:none;" d="M178 361L178 362L181 362L178 361M334 361L334 362L337 362L334 361z"/>
<path style="fill:#7dd6d2; stroke:none;" d="M337 361L338 362L337 361z"/>
<path style="fill:#56cac4; stroke:none;" d="M338.667 361.333L339.333 361.667L338.667 361.333M384 361L385 362L384 361z"/>
<path style="fill:#7dd6d2; stroke:none;" d="M385.667 361.333L386.333 361.667L385.667 361.333z"/>
<path style="fill:#b2e7e4; stroke:none;" d="M387 361L387 362L390 362L387 361M124.667 362.333L125.333 362.667L124.667 362.333z"/>
<path style="fill:#7dd6d2; stroke:none;" d="M126.667 362.333L127.333 362.667L126.667 362.333z"/>
<path style="fill:#56cac4; stroke:none;" d="M128.667 362.333L129.333 362.667L128.667 362.333M170.667 362.333L171.333 362.667L170.667 362.333z"/>
<path style="fill:#7dd6d2; stroke:none;" d="M172.667 362.333L173.333 362.667L172.667 362.333z"/>
<path style="fill:#b2e7e4; stroke:none;" d="M174.667 362.333L175.333 362.667L174.667 362.333M339 362L339 363L342 363L339 362z"/>
<path style="fill:#7dd6d2; stroke:none;" d="M342 362L343 363L342 362z"/>
<path style="fill:#56cac4; stroke:none;" d="M343.667 362.333L344.333 362.667L343.667 362.333M378.667 362.333L379.333 362.667L378.667 362.333z"/>
<path style="fill:#7dd6d2; stroke:none;" d="M380.667 362.333L381.333 362.667L380.667 362.333z"/>
<path style="fill:#b2e7e4; stroke:none;" d="M382 362L382 363L385 363L382 362M129 363L129 364L132 364L129 363z"/>
<path style="fill:#7dd6d2; stroke:none;" d="M132.667 363.333L133.333 363.667L132.667 363.333z"/>
<path style="fill:#56cac4; stroke:none;" d="M134 363L134 364L139 364L134 363M160 363L160 364L166 364L160 363z"/>
<path style="fill:#7dd6d2; stroke:none;" d="M166.667 363.333L167.333 363.667L166.667 363.333z"/>
<path style="fill:#b2e7e4; stroke:none;" d="M168 363L168 364L171 364L168 363M344 363L344 364L348 364L344 363z"/>
<path style="fill:#7dd6d2; stroke:none;" d="M348 363L348 364L351 364L348 363z"/>
<path style="fill:#56cac4; stroke:none;" d="M351 363L351 364L373 364L351 363z"/>
<path style="fill:#7dd6d2; stroke:none;" d="M373 363L373 364L376 364L373 363z"/>
<path style="fill:#b2e7e4; stroke:none;" d="M376 363L376 364L380 364L376 363M134 364L134 365L140 365L134 364z"/>
<path style="fill:#7dd6d2; stroke:none;" d="M140 364L140 365L160 365L140 364z"/>
<path style="fill:#b2e7e4; stroke:none;" d="M160 364L160 365L165 365L160 364M351 364L351 365L372 365L351 364z"/>
</svg>
